<svg width="48" height="48" viewBox="0 0 48 48" fill="none" xmlns="http://www.w3.org/2000/svg">
<path d="M32.635 10H14.5983C13.7156 10 13 10.7156 13 11.5983V36.4017C13 37.2844 13.7156 38 14.5983 38H32.635C33.5177 38 34.2333 37.2844 34.2333 36.4017V11.5983C34.2333 10.7156 33.5177 10 32.635 10Z" fill="white" stroke="#38434D" strokeWidth="0.83" strokeLinecap="round" strokeLinejoin="round"/>
<path d="M31.8406 12.4731H15.3906V35.5381H31.8406V12.4731Z" fill="#E0AC36"/>
<path d="M23.9766 22.6235H29.9266" stroke="#F9ECAA" strokeWidth="0.95" strokeLinecap="round" strokeLinejoin="round"/>
<path d="M17.3516 25.9834H29.8699" stroke="#38434D" strokeWidth="0.83" strokeLinecap="round" strokeLinejoin="round"/>
<path d="M17.3516 29.4834H29.8699" stroke="#38434D" strokeWidth="0.83" strokeLinecap="round" strokeLinejoin="round"/>
<path d="M17.3516 32.8433H29.8699" stroke="#38434D" strokeWidth="0.83" strokeLinecap="round" strokeLinejoin="round"/>
<path d="M30.6051 16.335H29.8118C29.8118 16.335 29.8118 16.2416 29.8118 16.195C29.8248 15.9273 29.777 15.6602 29.6719 15.4136C29.5668 15.1671 29.4072 14.9476 29.2051 14.7716C28.7476 14.3843 28.1586 14.188 27.5601 14.2233H25.2268V16.335H24.6318C24.5456 16.3504 24.4675 16.3957 24.4113 16.4628C24.355 16.53 24.3242 16.6148 24.3242 16.7025C24.3242 16.7901 24.355 16.8749 24.4113 16.9421C24.4675 17.0093 24.5456 17.0545 24.6318 17.07H25.2268V17.4433H24.8185C24.768 17.434 24.7161 17.4359 24.6664 17.4488C24.6167 17.4618 24.5704 17.4856 24.531 17.5184C24.4915 17.5513 24.4597 17.5924 24.4379 17.6389C24.4161 17.6854 24.4048 17.7361 24.4048 17.7875C24.4048 17.8388 24.4161 17.8895 24.4379 17.936C24.4597 17.9825 24.4915 18.0237 24.531 18.0565C24.5704 18.0894 24.6167 18.1131 24.6664 18.1261C24.7161 18.1391 24.768 18.141 24.8185 18.1316H25.2268V20.6516H26.0668V18.1433H27.5835C28.1836 18.1817 28.7771 17.9991 29.2518 17.63C29.4329 17.478 29.5767 17.2864 29.6718 17.07H30.5818C30.6355 17.0796 30.6907 17.0773 30.7435 17.0633C30.7962 17.0492 30.8453 17.0238 30.8871 16.9888C30.929 16.9537 30.9627 16.9099 30.9858 16.8604C31.0089 16.811 31.0209 16.7571 31.0209 16.7025C31.0209 16.6479 31.0089 16.5939 30.9858 16.5445C30.9627 16.495 30.929 16.4512 30.8871 16.4162C30.8453 16.3811 30.7962 16.3557 30.7435 16.3417C30.6907 16.3276 30.6355 16.3253 30.5818 16.335H30.6051ZM26.0901 14.9233H27.6651C28.0296 14.9135 28.3842 15.0428 28.6568 15.285C28.7794 15.4014 28.8753 15.5431 28.9377 15.7002C29.0002 15.8573 29.0277 16.0261 29.0185 16.195C29.0185 16.195 29.0185 16.2883 29.0185 16.335H26.1135L26.0901 14.9233ZM28.6568 17.1283C28.3604 17.3558 27.9913 17.4677 27.6185 17.4433H26.0901V17.07H28.6451C28.6451 17.07 28.6451 17.1166 28.6451 17.1283H28.6568Z" fill="#38434D"/>
<path d="M23.979 17.4432C23.9361 17.4417 23.8933 17.4486 23.853 17.4636C23.8128 17.4786 23.7759 17.5013 23.7445 17.5306C23.7131 17.5598 23.6877 17.595 23.6699 17.6341C23.6521 17.6731 23.6421 17.7153 23.6406 17.7582V17.8166C23.6406 17.9063 23.6763 17.9923 23.7397 18.0558C23.8032 18.1192 23.8892 18.1549 23.979 18.1549C24.0687 18.1549 24.1547 18.1192 24.2182 18.0558C24.2816 17.9923 24.3173 17.9063 24.3173 17.8166C24.3242 17.7689 24.3205 17.7203 24.3065 17.6743C24.2924 17.6282 24.2684 17.5858 24.2361 17.5502C24.2038 17.5145 24.1639 17.4864 24.1195 17.4679C24.075 17.4494 24.0271 17.441 23.979 17.4432Z" fill="#38434D"/>
</svg>
