<svg width="56" height="62" viewBox="0 0 56 62" fill="none" xmlns="http://www.w3.org/2000/svg">
<mask id="path-1-inside-1_15067_198225" fill="white">
<path d="M11.2206 61.9999H34.0444C35.9145 61.9999 37.6784 61.2349 38.9747 59.8961L53.6167 44.7864C54.7643 43.5963 54.8068 41.7475 53.723 40.4937C52.5542 39.1549 50.5353 39.0274 49.2178 40.1962L38.2309 50.2055C36.9771 51.3106 35.362 51.9269 33.6831 51.9269H24.4813C22.5475 51.9269 20.9962 50.3755 20.9962 48.4416C20.9962 46.5078 22.5475 44.9564 24.4813 44.9564H32.4293C34.1719 44.9564 35.5745 43.5539 35.5745 41.8113C35.5745 40.0687 34.1719 38.666 32.4293 38.666H14.2595C11.3056 38.666 8.47922 39.8987 6.50286 42.0876C3.7402 45.169 0.446275 50.418 0 58.1747"/>
</mask>
<path d="M11.2206 61.9999H34.0444C35.9145 61.9999 37.6784 61.2349 38.9747 59.8961L53.6167 44.7864C54.7643 43.5963 54.8068 41.7475 53.723 40.4937C52.5542 39.1549 50.5353 39.0274 49.2178 40.1962L38.2309 50.2055C36.9771 51.3106 35.362 51.9269 33.6831 51.9269H24.4813C22.5475 51.9269 20.9962 50.3755 20.9962 48.4416C20.9962 46.5078 22.5475 44.9564 24.4813 44.9564H32.4293C34.1719 44.9564 35.5745 43.5539 35.5745 41.8113C35.5745 40.0687 34.1719 38.666 32.4293 38.666H14.2595C11.3056 38.666 8.47922 39.8987 6.50286 42.0876C3.7402 45.169 0.446275 50.418 0 58.1747" fill="#E0AC36"/>
<path d="M38.9747 59.8961L38.2565 59.2002L38.2563 59.2005L38.9747 59.8961ZM53.6167 44.7864L54.3349 45.4823L54.3366 45.4805L53.6167 44.7864ZM53.723 40.4937L54.4796 39.8398L54.4763 39.8361L53.723 40.4937ZM49.2178 40.1962L48.5541 39.448L48.5443 39.4569L49.2178 40.1962ZM38.2309 50.2055L38.8921 50.9557L38.8982 50.9503L38.9043 50.9448L38.2309 50.2055ZM6.50286 42.0876L5.76064 41.4174L5.75829 41.42L6.50286 42.0876ZM11.2206 62.9999H34.0444V60.9999H11.2206V62.9999ZM34.0444 62.9999C36.1912 62.9999 38.2126 62.1207 39.6931 60.5917L38.2563 59.2005C37.1441 60.349 35.6377 60.9999 34.0444 60.9999V62.9999ZM39.6928 60.592L54.3349 45.4823L52.8986 44.0905L38.2565 59.2002L39.6928 60.592ZM54.3366 45.4805C55.8468 43.9143 55.898 41.4808 54.4795 39.8398L52.9665 41.1477C53.7156 42.0143 53.6817 43.2783 52.8969 44.0922L54.3366 45.4805ZM54.4763 39.8361C52.9439 38.0808 50.2891 37.909 48.5542 39.4481L49.8814 40.9442C50.7816 40.1457 52.1645 40.229 52.9697 41.1514L54.4763 39.8361ZM48.5443 39.4569L37.5574 49.4663L38.9043 50.9448L49.8912 40.9354L48.5443 39.4569ZM37.5697 49.4553C36.4971 50.4007 35.1166 50.9269 33.6831 50.9269V52.9269C35.6073 52.9269 37.457 52.2205 38.8921 50.9557L37.5697 49.4553ZM33.6831 50.9269H24.4813V52.9269H33.6831V50.9269ZM24.4813 50.9269C23.0998 50.9269 21.9962 49.8232 21.9962 48.4416H19.9962C19.9962 50.9278 21.9952 52.9269 24.4813 52.9269V50.9269ZM21.9962 48.4416C21.9962 47.0601 23.0998 45.9564 24.4813 45.9564V43.9564C21.9952 43.9564 19.9962 45.9555 19.9962 48.4416H21.9962ZM24.4813 45.9564H32.4293V43.9564H24.4813V45.9564ZM32.4293 45.9564C34.7242 45.9564 36.5745 44.1062 36.5745 41.8113H34.5745C34.5745 43.0016 33.6196 43.9564 32.4293 43.9564V45.9564ZM36.5745 41.8113C36.5745 39.5164 34.7242 37.666 32.4293 37.666V39.666C33.6196 39.666 34.5745 40.6209 34.5745 41.8113H36.5745ZM32.4293 37.666H14.2595V39.666H32.4293V37.666ZM14.2595 37.666C11.0284 37.666 7.93037 39.0144 5.76064 41.4174L7.24508 42.7577C9.02807 40.783 11.5829 39.666 14.2595 39.666V37.666ZM5.75829 41.42C2.88031 44.6301 -0.536268 50.0859 -0.998349 58.1173L0.998349 58.2322C1.42882 50.7502 4.6001 45.7079 7.24743 42.7551L5.75829 41.42Z" fill="#38434D" mask="url(#path-1-inside-1_15067_198225)"/>
<path d="M45.1453 10.4367C50.5187 15.81 50.5186 24.522 45.1452 29.8954C39.7718 35.2687 31.0599 35.2688 25.6865 29.8954C20.3131 24.522 20.3131 15.81 25.6865 10.4366C31.0599 5.06325 39.7719 5.06327 45.1453 10.4367Z" fill="#F9ECAA" stroke="#38434D" stroke-miterlimit="10" stroke-linecap="round" stroke-linejoin="round"/>
<path d="M33.6017 20.5403V25.609H31.8943V12.6616H36.6696C38.0864 12.6616 39.195 13.0232 39.9953 13.7465C40.8016 14.4697 41.2047 15.4272 41.2047 16.6187C41.2047 17.8755 40.8105 18.8448 40.022 19.5266C39.2395 20.2024 38.1161 20.5403 36.6518 20.5403H33.6017ZM33.6017 19.1442H36.6696C37.5825 19.1442 38.2821 18.9308 38.7682 18.5039C39.2543 18.0712 39.4973 17.4487 39.4973 16.6365C39.4973 15.8658 39.2543 15.2493 38.7682 14.7869C38.2821 14.3245 37.6151 14.0844 36.7674 14.0666H33.6017V19.1442Z" fill="#38434D"/>
<path d="M42.694 16.9053H30.7083C30.3046 16.9053 29.9645 17.2454 29.9645 17.6491C29.9645 18.0529 30.3046 18.3929 30.7083 18.3929H42.694C43.0978 18.3929 43.4378 18.0529 43.4378 17.6491C43.4378 17.2454 43.0978 16.9053 42.694 16.9053Z" fill="#38434D"/>
<path d="M35.9597 18.8813H31.0719C30.6682 18.8813 30.3281 19.2214 30.3281 19.6252C30.3281 20.029 30.6682 20.369 31.0719 20.369H35.9597C36.3635 20.369 36.7035 20.029 36.7035 19.6252C36.7035 19.2214 36.3635 18.8813 35.9597 18.8813Z" fill="#38434D"/>
<path d="M29.2855 18.8816C28.9243 18.8816 28.6055 19.1791 28.6055 19.5616V19.7104C28.6055 20.0717 28.903 20.3905 29.2855 20.3905C29.668 20.3905 29.9655 20.0929 29.9655 19.7104V19.5616C29.9655 19.1791 29.668 18.8816 29.2855 18.8816Z" fill="#38434D"/>
<path d="M22.4013 31.6533H19.2773" stroke="#E0AC33" stroke-miterlimit="10" stroke-linecap="round" stroke-linejoin="round"/>
<path d="M20.381 29.0818H13.7931" stroke="#E0AC33" stroke-miterlimit="10" stroke-linecap="round" stroke-linejoin="round"/>
</svg>
