<svg width="49" height="48" viewBox="0 0 49 48" fill="none" xmlns="http://www.w3.org/2000/svg">
<rect x="9" y="24.5" width="31" height="11" rx="0.5" fill="#E0AC39" stroke="#38434D"/>
<mask id="path-2-inside-1" fill="white">
<path fill-rule="evenodd" clip-rule="evenodd" d="M33.0471 19.2401C33.033 19.2401 33.0193 19.2356 33.0079 19.2273L25.6796 13.8645C24.9763 13.3498 24.0207 13.3498 23.3174 13.8645L15.9892 19.2272C15.9777 19.2356 15.9639 19.2401 15.9497 19.2401C15.9128 19.2401 15.8828 19.2701 15.8828 19.307V37.0001C15.8828 38.1047 16.7782 39.0001 17.8828 39.0001H31.1136C32.2182 39.0001 33.1136 38.1047 33.1136 37.0001V19.3066C33.1136 19.2699 33.0838 19.2401 33.0471 19.2401Z"/>
</mask>
<path fill-rule="evenodd" clip-rule="evenodd" d="M33.0471 19.2401C33.033 19.2401 33.0193 19.2356 33.0079 19.2273L25.6796 13.8645C24.9763 13.3498 24.0207 13.3498 23.3174 13.8645L15.9892 19.2272C15.9777 19.2356 15.9639 19.2401 15.9497 19.2401C15.9128 19.2401 15.8828 19.2701 15.8828 19.307V37.0001C15.8828 38.1047 16.7782 39.0001 17.8828 39.0001H31.1136C32.2182 39.0001 33.1136 38.1047 33.1136 37.0001V19.3066C33.1136 19.2699 33.0838 19.2401 33.0471 19.2401Z" fill="#E0AC39"/>
<path d="M15.9892 19.2272L16.5798 20.0342L15.9892 19.2272ZM33.0079 19.2273L32.4174 20.0343L33.0079 19.2273ZM23.3174 13.8645L22.7268 13.0575L23.3174 13.8645ZM25.0891 14.6715L32.4174 20.0343L33.5985 18.4203L26.2702 13.0575L25.0891 14.6715ZM16.5798 20.0342L23.9079 14.6715L22.7268 13.0575L15.3986 18.4202L16.5798 20.0342ZM16.8828 37.0001V19.307H14.8828V37.0001H16.8828ZM31.1136 38.0001H17.8828V40.0001H31.1136V38.0001ZM32.1136 19.3066V37.0001H34.1136V19.3066H32.1136ZM34.1136 19.3066C34.1136 18.7176 33.6361 18.2401 33.0471 18.2401V20.2401C32.5316 20.2401 32.1136 19.8222 32.1136 19.3066H34.1136ZM31.1136 40.0001C32.7704 40.0001 34.1136 38.657 34.1136 37.0001H32.1136C32.1136 37.5524 31.6659 38.0001 31.1136 38.0001V40.0001ZM14.8828 37.0001C14.8828 38.657 16.226 40.0001 17.8828 40.0001V38.0001C17.3305 38.0001 16.8828 37.5524 16.8828 37.0001H14.8828ZM15.9497 18.2401C15.3605 18.2401 14.8828 18.7178 14.8828 19.307H16.8828C16.8828 19.8224 16.465 20.2401 15.9497 20.2401V18.2401ZM15.3986 18.4202C15.5585 18.3032 15.7516 18.2401 15.9497 18.2401V20.2401C16.1763 20.2401 16.3969 20.168 16.5798 20.0342L15.3986 18.4202ZM32.4174 20.0343C32.6001 20.168 32.8207 20.2401 33.0471 20.2401V18.2401C33.2454 18.2401 33.4385 18.3032 33.5985 18.4203L32.4174 20.0343ZM26.2702 13.0575C25.2152 12.2855 23.7818 12.2855 22.7268 13.0575L23.9079 14.6715C24.2596 14.4142 24.7374 14.4142 25.0891 14.6715L26.2702 13.0575Z" fill="#38434D" mask="url(#path-2-inside-1)"/>
<path d="M21.7656 32C21.7656 30.6193 22.8849 29.5 24.2656 29.5H24.7272C26.1079 29.5 27.2272 30.6193 27.2272 32V38.5H21.7656V32Z" fill="#FAEDAB" stroke="#38434D"/>
<circle cx="24.5" cy="24" r="2.5" fill="#F9ECAA" stroke="#38434D"/>
<path d="M11 29.6154C11 28.9994 11.4994 28.5 12.1154 28.5C12.7314 28.5 13.2308 28.9994 13.2308 29.6154V32.5H11V29.6154Z" fill="#F9ECAA" stroke="#38434D"/>
<path d="M35.7656 29.6154C35.7656 28.9994 36.265 28.5 36.881 28.5C37.497 28.5 37.9964 28.9994 37.9964 29.6154V32.5H35.7656V29.6154Z" fill="#F9ECAA" stroke="#38434D"/>
<path d="M24.5 14V9" stroke="#38434D" strokeLinejoin="round"/>
<path d="M25 9.5H30.5C30.7761 9.5 31 9.72386 31 10V12C31 12.2761 30.7761 12.5 30.5 12.5H25V9.5Z" fill="#E0AC3B" stroke="#38434D"/>
</svg>
