<svg width="64" height="64" viewBox="0 0 64 64" fill="none" xmlns="http://www.w3.org/2000/svg">
<circle cx="32" cy="32" r="32" fill="#E0AC39"/>
<path d="M39.75 30.5H38.625V27.125C38.625 23.2344 35.3906 20 31.5 20C27.5625 20 24.375 23.2344 24.375 27.125V30.5H23.25C21.9844 30.5 21 31.5312 21 32.75V41.75C21 43.0156 21.9844 44 23.25 44H39.75C40.9688 44 42 43.0156 42 41.75V32.75C42 31.5312 40.9688 30.5 39.75 30.5ZM34.875 30.5H28.125V27.125C28.125 25.2969 29.625 23.75 31.5 23.75C33.3281 23.75 34.875 25.2969 34.875 27.125V30.5Z" fill="white"/>
</svg>
