<svg width="150" height="197" viewBox="0 0 150 197" fill="none" xmlns="https://www.w3.org/2000/svg">
<g clip-path="url(#clip0)">
<path d="M149.255 14.586C149.255 11.7688 147.106 9.48242 144.463 9.48242H5.53252C2.88885 9.48242 0.740234 11.7688 0.740234 14.586V180.315L2.38359 182.495L4.29234 185.021C4.61387 185.45 5.41513 185.45 5.73666 185.021L7.64541 182.495L8.10473 181.882L9.13566 180.519L10.1666 181.882L10.6259 182.495L12.5347 185.021C12.8511 185.45 13.6575 185.45 13.9739 185.021L15.8826 182.495L16.3419 181.882L16.8574 181.198L17.3729 180.519L17.8883 181.198L18.4038 181.882L18.8631 182.495L20.7719 185.021C21.0934 185.45 21.8947 185.45 22.2162 185.021L24.1249 182.495L24.5843 181.882L25.6152 180.519L26.6461 181.882L27.1054 182.495L29.0142 185.021C29.3357 185.45 30.137 185.45 30.4585 185.021L32.3673 182.495L32.8266 181.882L33.3421 181.198L33.8575 180.519L34.8884 181.882L35.3478 182.495L37.2565 185.021C37.5729 185.45 38.3793 185.45 38.6957 185.021L40.6045 182.495L41.0638 181.882L42.0947 180.519L43.1257 181.882L43.585 182.495L45.4937 185.021C45.8153 185.45 46.6165 185.45 46.938 185.021L48.8468 182.495L49.3061 181.882L49.8216 181.198L50.337 180.519L50.8525 181.198L51.368 181.882L51.8273 182.495L53.736 185.021C54.0576 185.45 54.8588 185.45 55.1804 185.021L57.0891 182.495L57.5484 181.882L58.5794 180.519L59.6103 181.882L60.0696 182.495L61.9784 185.021C62.2948 185.45 63.1012 185.45 63.4176 185.021L65.3263 182.495L65.7857 181.882L66.3011 181.198L66.8166 180.519L67.332 181.198L67.8475 181.882L68.3068 182.495L70.2156 185.021C70.5371 185.45 71.3384 185.45 71.6599 185.021L73.5686 182.495L74.028 181.882L75.0589 180.519L76.0898 181.882L76.5492 182.495L78.4579 185.021C78.7794 185.45 79.5807 185.45 79.9022 185.021L81.811 182.495L82.2703 181.882L82.7858 181.198L83.3012 180.519L83.8167 181.198L84.3322 181.882L84.7915 182.495L86.7002 185.021C87.0166 185.45 87.823 185.45 88.1394 185.021L90.0482 182.495L90.5075 181.882L91.5384 180.519L92.5694 181.882L93.0287 182.495L94.9374 185.021C95.259 185.45 96.0602 185.45 96.3818 185.021L98.2905 182.495L98.7498 181.882L99.2653 181.198L99.7808 180.519L100.296 181.198L100.812 181.882L101.271 182.495L103.18 185.021C103.501 185.45 104.303 185.45 104.624 185.021L106.533 182.495L106.992 181.882L108.023 180.519L109.054 181.882L109.513 182.495L111.422 185.021C111.739 185.45 112.545 185.45 112.861 185.021L114.77 182.495L115.229 181.882L116.26 180.519L116.776 181.198L117.291 181.882L117.751 182.495L119.659 185.021C119.981 185.45 120.782 185.45 121.104 185.021L123.012 182.495L123.472 181.882L124.503 180.519L125.534 181.882L125.993 182.495L127.902 185.021C128.223 185.45 129.024 185.45 129.346 185.021L131.255 182.495L131.714 181.882L132.229 181.198L132.745 180.519L133.26 181.198L133.776 181.882L134.235 182.495L136.144 185.021C136.46 185.45 137.267 185.45 137.583 185.021L139.492 182.495L139.798 182.086L139.951 181.882L140.982 180.519L142.013 181.882L142.472 182.495L144.381 185.021C144.703 185.45 145.504 185.45 145.825 185.021L147.734 182.495L147.739 182.484L149.378 180.315V14.586H149.255Z" fill="white" stroke="#38434D" strokeWidth="2.9066" strokeMiterlimit="10"/>
<path d="M139.766 176.125H10.2266C7.49621 176.125 5.28125 173.91 5.28125 171.18V23.6449C5.28125 20.9144 7.49621 18.6995 10.2266 18.6995H139.766C142.497 18.6995 144.712 20.9144 144.712 23.6449V171.185C144.712 173.91 142.497 176.125 139.766 176.125Z" fill="#E0AC3B"/>
<path d="M136.446 35.0209H13.556C11.5095 35.0209 9.8457 33.3622 9.8457 31.3105V31.0707C9.8457 29.0241 11.5044 27.3604 13.556 27.3604H136.451C138.497 27.3604 140.161 29.019 140.161 31.0707V31.3105C140.156 33.3622 138.492 35.0209 136.446 35.0209Z" fill="#FAEDAB"/>
<path d="M85.0065 50.8419H13.556C11.5095 50.8419 9.8457 49.1832 9.8457 47.1316V46.8917C9.8457 44.8452 11.5044 43.1814 13.556 43.1814H85.0116C87.0581 43.1814 88.7219 44.8401 88.7219 46.8917V47.1316C88.7168 49.1832 87.0581 50.8419 85.0065 50.8419Z" fill="white"/>
<path d="M59.8202 66.6632H13.556C11.5095 66.6632 9.8457 65.0045 9.8457 62.9529V62.713C9.8457 60.6665 11.5044 59.0027 13.556 59.0027H59.8202C61.8667 59.0027 63.5305 60.6614 63.5305 62.713V62.9529C63.5254 65.0045 61.8667 66.6632 59.8202 66.6632Z" fill="white"/>
<path d="M136.446 102.133H13.556C11.5095 102.133 9.8457 100.475 9.8457 98.4229V98.183C9.8457 96.1364 11.5044 94.4727 13.556 94.4727H136.451C138.497 94.4727 140.161 96.1313 140.161 98.183V98.4229C140.156 100.475 138.492 102.133 136.446 102.133Z" fill="white"/>
<path d="M77.9992 119.996H13.556C11.5095 119.996 9.8457 118.337 9.8457 116.286V116.046C9.8457 113.999 11.5044 112.335 13.556 112.335H78.0043C80.0509 112.335 81.7147 113.994 81.7147 116.046V116.286C81.7095 118.337 80.0509 119.996 77.9992 119.996Z" fill="white"/>
<path d="M136.447 119.996H92.347C90.3005 119.996 88.6367 118.337 88.6367 116.286V116.046C88.6367 113.999 90.2954 112.335 92.347 112.335H136.447C138.494 112.335 140.158 113.994 140.158 116.046V116.286C140.158 118.337 138.494 119.996 136.447 119.996Z" fill="white"/>
<path d="M136.446 137.859H13.556C11.5095 137.859 9.8457 136.2 9.8457 134.148V133.908C9.8457 131.862 11.5044 130.198 13.556 130.198H136.451C138.497 130.198 140.161 131.857 140.161 133.908V134.148C140.156 136.2 138.492 137.859 136.446 137.859Z" fill="white"/>
<path d="M136.446 155.721H13.556C11.5095 155.721 9.8457 154.062 9.8457 152.011V151.771C9.8457 149.724 11.5044 148.061 13.556 148.061H136.451C138.497 148.061 140.161 149.719 140.161 151.771V152.011C140.156 154.062 138.492 155.721 136.446 155.721Z" fill="white"/>
<path d="M30.2281 5.1036H8.13969C6.7311 5.1036 5.58789 3.9604 5.58789 2.5518C5.58789 1.14321 6.7311 0 8.13969 0H30.2281C31.6367 0 32.7799 1.14321 32.7799 2.5518C32.7799 3.9604 31.6418 5.1036 30.2281 5.1036Z" fill="#E0AC3B"/>
<path d="M142.405 196.111H131.591C130.182 196.111 129.039 194.968 129.039 193.559C129.039 192.151 130.182 191.007 131.591 191.007H142.405C143.814 191.007 144.957 192.151 144.957 193.559C144.957 194.968 143.814 196.111 142.405 196.111Z" fill="#FAEDAB"/>
</g>
<defs>
<clipPath id="clip0">
<rect width="150" height="196.111" fill="white"/>
</clipPath>
</defs>
</svg>
