<svg width="106" height="136" viewBox="0 0 106 136" fill="none" xmlns="http://www.w3.org/2000/svg">
<mask id="path-1-inside-1_2999:129483" fill="white">
<path d="M81.9522 30.2926C81.9522 29.0271 81.1138 28 80.0822 28H25.87C24.8384 28 24 29.0271 24 30.2926V104.742L24.6413 105.721L25.3861 106.856C25.5115 107.048 25.8242 107.048 25.9497 106.856L26.6945 105.721L26.8737 105.446L27.276 104.833L27.6783 105.446L27.8575 105.721L28.6023 106.856C28.7258 107.048 29.0404 107.048 29.1639 106.856L29.9087 105.721L30.088 105.446L30.2891 105.138L30.4902 104.833L30.6914 105.138L30.8925 105.446L31.0718 105.721L31.8166 106.856C31.942 107.048 32.2547 107.048 32.3802 106.856L33.125 105.721L33.3042 105.446L33.7065 104.833L34.1088 105.446L34.288 105.721L35.0328 106.856C35.1583 107.048 35.471 107.048 35.5964 106.856L36.3412 105.721L36.5205 105.446L36.7216 105.138L36.9227 104.833L37.325 105.446L37.5043 105.721L38.2491 106.856C38.3725 107.048 38.6872 107.048 38.8107 106.856L39.5555 105.721L39.7347 105.446L40.137 104.833L40.5393 105.446L40.7185 105.721L41.4633 106.856C41.5888 107.048 41.9015 107.048 42.0269 106.856L42.7717 105.721L42.951 105.446L43.1521 105.138L43.3532 104.833L43.5544 105.138L43.7555 105.446L43.9348 105.721L44.6796 106.856C44.805 107.048 45.1177 107.048 45.2432 106.856L45.988 105.721L46.1672 105.446L46.5695 104.833L46.9718 105.446L47.151 105.721L47.8958 106.856C48.0193 107.048 48.334 107.048 48.4574 106.856L49.2022 105.721L49.3815 105.446L49.5826 105.138L49.7838 104.833L49.9849 105.138L50.186 105.446L50.3653 105.721L51.1101 106.856C51.2355 107.048 51.5482 107.048 51.6737 106.856L52.4185 105.721L52.5977 105.446L53 104.833L53.4023 105.446L53.5815 105.721L54.3263 106.856C54.4518 107.048 54.7645 107.048 54.8899 106.856L55.6347 105.721L55.814 105.446L56.0151 105.138L56.2163 104.833L56.4174 105.138L56.6185 105.446L56.7978 105.721L57.5426 106.856C57.666 107.048 57.9807 107.048 58.1042 106.856L58.849 105.721L59.0282 105.446L59.4305 104.833L59.8328 105.446L60.012 105.721L60.7568 106.856C60.8823 107.048 61.195 107.048 61.3204 106.856L62.0652 105.721L62.2445 105.446L62.4456 105.138L62.6468 104.833L62.8479 105.138L63.049 105.446L63.2283 105.721L63.9731 106.856C64.0985 107.048 64.4112 107.048 64.5367 106.856L65.2815 105.721L65.4607 105.446L65.863 104.833L66.2653 105.446L66.4445 105.721L67.1893 106.856C67.3128 107.048 67.6275 107.048 67.7509 106.856L68.4957 105.721L68.675 105.446L69.0773 104.833L69.2784 105.138L69.4795 105.446L69.6588 105.721L70.4036 106.856C70.5291 107.048 70.8417 107.048 70.9672 106.856L71.712 105.721L71.8912 105.446L72.2935 104.833L72.6958 105.446L72.875 105.721L73.6198 106.856C73.7453 107.048 74.058 107.048 74.1834 106.856L74.9282 105.721L75.1075 105.446L75.3086 105.138L75.5098 104.833L75.7109 105.138L75.912 105.446L76.0913 105.721L76.8361 106.856C76.9596 107.048 77.2742 107.048 77.3977 106.856L78.1425 105.721L78.262 105.537L78.3217 105.446L78.724 104.833L79.1263 105.446L79.3055 105.721L80.0503 106.856C80.1758 107.048 80.4885 107.048 80.6139 106.856L81.3587 105.721L81.3607 105.716L82 104.742V30.2926H81.9522Z"/>
</mask>
<path d="M81.9522 30.2926C81.9522 29.0271 81.1138 28 80.0822 28H25.87C24.8384 28 24 29.0271 24 30.2926V104.742L24.6413 105.721L25.3861 106.856C25.5115 107.048 25.8242 107.048 25.9497 106.856L26.6945 105.721L26.8737 105.446L27.276 104.833L27.6783 105.446L27.8575 105.721L28.6023 106.856C28.7258 107.048 29.0404 107.048 29.1639 106.856L29.9087 105.721L30.088 105.446L30.2891 105.138L30.4902 104.833L30.6914 105.138L30.8925 105.446L31.0718 105.721L31.8166 106.856C31.942 107.048 32.2547 107.048 32.3802 106.856L33.125 105.721L33.3042 105.446L33.7065 104.833L34.1088 105.446L34.288 105.721L35.0328 106.856C35.1583 107.048 35.471 107.048 35.5964 106.856L36.3412 105.721L36.5205 105.446L36.7216 105.138L36.9227 104.833L37.325 105.446L37.5043 105.721L38.2491 106.856C38.3725 107.048 38.6872 107.048 38.8107 106.856L39.5555 105.721L39.7347 105.446L40.137 104.833L40.5393 105.446L40.7185 105.721L41.4633 106.856C41.5888 107.048 41.9015 107.048 42.0269 106.856L42.7717 105.721L42.951 105.446L43.1521 105.138L43.3532 104.833L43.5544 105.138L43.7555 105.446L43.9348 105.721L44.6796 106.856C44.805 107.048 45.1177 107.048 45.2432 106.856L45.988 105.721L46.1672 105.446L46.5695 104.833L46.9718 105.446L47.151 105.721L47.8958 106.856C48.0193 107.048 48.334 107.048 48.4574 106.856L49.2022 105.721L49.3815 105.446L49.5826 105.138L49.7838 104.833L49.9849 105.138L50.186 105.446L50.3653 105.721L51.1101 106.856C51.2355 107.048 51.5482 107.048 51.6737 106.856L52.4185 105.721L52.5977 105.446L53 104.833L53.4023 105.446L53.5815 105.721L54.3263 106.856C54.4518 107.048 54.7645 107.048 54.8899 106.856L55.6347 105.721L55.814 105.446L56.0151 105.138L56.2163 104.833L56.4174 105.138L56.6185 105.446L56.7978 105.721L57.5426 106.856C57.666 107.048 57.9807 107.048 58.1042 106.856L58.849 105.721L59.0282 105.446L59.4305 104.833L59.8328 105.446L60.012 105.721L60.7568 106.856C60.8823 107.048 61.195 107.048 61.3204 106.856L62.0652 105.721L62.2445 105.446L62.4456 105.138L62.6468 104.833L62.8479 105.138L63.049 105.446L63.2283 105.721L63.9731 106.856C64.0985 107.048 64.4112 107.048 64.5367 106.856L65.2815 105.721L65.4607 105.446L65.863 104.833L66.2653 105.446L66.4445 105.721L67.1893 106.856C67.3128 107.048 67.6275 107.048 67.7509 106.856L68.4957 105.721L68.675 105.446L69.0773 104.833L69.2784 105.138L69.4795 105.446L69.6588 105.721L70.4036 106.856C70.5291 107.048 70.8417 107.048 70.9672 106.856L71.712 105.721L71.8912 105.446L72.2935 104.833L72.6958 105.446L72.875 105.721L73.6198 106.856C73.7453 107.048 74.058 107.048 74.1834 106.856L74.9282 105.721L75.1075 105.446L75.3086 105.138L75.5098 104.833L75.7109 105.138L75.912 105.446L76.0913 105.721L76.8361 106.856C76.9596 107.048 77.2742 107.048 77.3977 106.856L78.1425 105.721L78.262 105.537L78.3217 105.446L78.724 104.833L79.1263 105.446L79.3055 105.721L80.0503 106.856C80.1758 107.048 80.4885 107.048 80.6139 106.856L81.3587 105.721L81.3607 105.716L82 104.742V30.2926H81.9522Z" fill="white" stroke="#38434D" stroke-width="2" stroke-miterlimit="10" stroke-linejoin="round" mask="url(#path-1-inside-1_2999:129483)"/>
<path d="M77.911 103.032H27.6766C26.6177 103.032 25.7588 102.038 25.7588 100.813V34.6102C25.7588 33.385 26.6177 32.3911 27.6766 32.3911H77.911C78.9698 32.3911 79.8288 33.385 79.8288 34.6102V100.815C79.8288 102.038 78.9698 103.032 77.911 103.032Z" fill="#E0AC3B"/>
<path d="M76.6218 39.7148H28.9662C28.1725 39.7148 27.5273 38.9705 27.5273 38.0499V37.9423C27.5273 37.0239 28.1706 36.2773 28.9662 36.2773H76.6238C77.4174 36.2773 78.0626 37.0216 78.0626 37.9423V38.0499C78.0606 38.9705 77.4154 39.7148 76.6218 39.7148Z" fill="#FAEDAB"/>
<path d="M56.6741 46.8144H28.9662C28.1725 46.8144 27.5273 46.0701 27.5273 45.1495V45.0419C27.5273 44.1235 28.1706 43.377 28.9662 43.377H56.6761C57.4697 43.377 58.1149 44.1212 58.1149 45.0419V45.1495C58.1129 46.0701 57.4697 46.8144 56.6741 46.8144Z" fill="white"/>
<path d="M46.907 53.9135H28.9662C28.1725 53.9135 27.5273 53.1692 27.5273 52.2486V52.141C27.5273 51.2227 28.1706 50.4761 28.9662 50.4761H46.907C47.7007 50.4761 48.3459 51.2204 48.3459 52.141V52.2486C48.3439 53.1692 47.7007 53.9135 46.907 53.9135Z" fill="white"/>
<path d="M76.6218 69.83H28.9662C28.1725 69.83 27.5273 69.0858 27.5273 68.1651V68.0575C27.5273 67.1392 28.1706 66.3926 28.9662 66.3926H76.6238C77.4174 66.3926 78.0626 67.1369 78.0626 68.0575V68.1651C78.0606 69.0858 77.4154 69.83 76.6218 69.83Z" fill="white"/>
<path d="M53.9567 77.8452H28.9662C28.1725 77.8452 27.5273 77.1009 27.5273 76.1803V76.0726C27.5273 75.1543 28.1706 74.4077 28.9662 74.4077H53.9587C54.7523 74.4077 55.3975 75.152 55.3975 76.0726V76.1803C55.3956 77.1009 54.7523 77.8452 53.9567 77.8452Z" fill="white"/>
<path d="M76.6236 77.8452H59.5218C58.7282 77.8452 58.083 77.1009 58.083 76.1803V76.0726C58.083 75.1543 58.7262 74.4077 59.5218 74.4077H76.6236C77.4172 74.4077 78.0624 75.152 78.0624 76.0726V76.1803C78.0624 77.1009 77.4172 77.8452 76.6236 77.8452Z" fill="white"/>
<path d="M76.6218 85.8608H28.9662C28.1725 85.8608 27.5273 85.1165 27.5273 84.1959V84.0883C27.5273 83.1699 28.1706 82.4233 28.9662 82.4233H76.6238C77.4174 82.4233 78.0626 83.1676 78.0626 84.0883V84.1959C78.0606 85.1165 77.4154 85.8608 76.6218 85.8608Z" fill="white"/>
<path d="M76.6218 93.8759H28.9662C28.1725 93.8759 27.5273 93.1317 27.5273 92.211V92.1034C27.5273 91.1851 28.1706 90.4385 28.9662 90.4385H76.6238C77.4174 90.4385 78.0626 91.1828 78.0626 92.1034V92.211C78.0606 93.1317 77.4154 93.8759 76.6218 93.8759Z" fill="white"/>
<path d="M35.7646 26H26.9806C26.4204 26 25.9658 25.552 25.9658 25C25.9658 24.448 26.4204 24 26.9806 24H35.7646C36.3248 24 36.7794 24.448 36.7794 25C36.7794 25.552 36.3268 26 35.7646 26Z" fill="#E0AC3B"/>
<path d="M78.9306 112H74.2555C73.6465 112 73.1523 111.552 73.1523 111C73.1523 110.448 73.6465 110 74.2555 110H78.9306C79.5395 110 80.0337 110.448 80.0337 111C80.0337 111.552 79.5395 112 78.9306 112Z" fill="#FAEDAB"/>
</svg>
