<svg width="24" height="24" viewBox="0 0 24 24" fill="none" xmlns="https://www.w3.org/2000/svg">
<path d="M19.0287 7.35268L14.9305 3.25446C14.8301 3.15402 14.7095 3.06362 14.5689 2.97321V7.71429H19.31C19.2196 7.57366 19.1292 7.45312 19.0287 7.35268ZM14.2475 9C13.7151 9 13.2832 8.56808 13.2832 8.03571V2.57143H5.24749C4.71512 2.57143 4.2832 3.00335 4.2832 3.53571V19.6071C4.2832 20.1395 4.71512 20.5714 5.24749 20.5714H18.7475C19.2799 20.5714 19.7118 20.1395 19.7118 19.6071V9H14.2475ZM15.8546 16.3929C15.8546 16.5737 15.714 16.7143 15.5332 16.7143H8.46177C8.28097 16.7143 8.14035 16.5737 8.14035 16.3929V15.75C8.14035 15.5692 8.28097 15.4286 8.46177 15.4286H15.5332C15.714 15.4286 15.8546 15.5692 15.8546 15.75V16.3929ZM15.8546 13.8214C15.8546 14.0022 15.714 14.1429 15.5332 14.1429H8.46177C8.28097 14.1429 8.14035 14.0022 8.14035 13.8214V13.1786C8.14035 12.9978 8.28097 12.8571 8.46177 12.8571H15.5332C15.714 12.8571 15.8546 12.9978 15.8546 13.1786V13.8214ZM15.8546 11.25C15.8546 11.4308 15.714 11.5714 15.5332 11.5714H8.46177C8.28097 11.5714 8.14035 11.4308 8.14035 11.25V10.6071C8.14035 10.4263 8.28097 10.2857 8.46177 10.2857H15.5332C15.714 10.2857 15.8546 10.4263 15.8546 10.6071V11.25Z" fill="#526372"/>
</svg>
