<svg width="150" height="179" viewBox="0 0 150 179" fill="none" xmlns="http://www.w3.org/2000/svg">
<g clip-path="url(#clip0)">
<path d="M142.099 14.1803C142.099 11.6346 140.157 9.5686 137.768 9.5686H12.2288C9.83996 9.5686 7.89844 11.6346 7.89844 14.1803V163.936L9.3834 165.905L11.1082 168.188C11.3987 168.575 12.1227 168.575 12.4133 168.188L14.1381 165.905L14.5531 165.352L15.4847 164.12L16.4162 165.352L16.8313 165.905L18.5561 168.188C18.842 168.575 19.5706 168.575 19.8565 168.188L21.5813 165.905L21.9964 165.352L22.4622 164.734L22.9279 164.12L23.3937 164.734L23.8595 165.352L24.2745 165.905L25.9993 168.188C26.2899 168.575 27.0139 168.575 27.3044 168.188L29.0292 165.905L29.4443 165.352L30.3758 164.12L31.3074 165.352L31.7224 165.905L33.4472 168.188C33.7377 168.575 34.4618 168.575 34.7523 168.188L36.4771 165.905L36.8921 165.352L37.3579 164.734L37.8237 164.12L38.7553 165.352L39.1703 165.905L40.8951 168.188C41.181 168.575 41.9097 168.575 42.1956 168.188L43.9203 165.905L44.3354 165.352L45.267 164.12L46.1985 165.352L46.6136 165.905L48.3383 168.188C48.6289 168.575 49.3529 168.575 49.6435 168.188L51.3682 165.905L51.7833 165.352L52.2491 164.734L52.7148 164.12L53.1806 164.734L53.6464 165.352L54.0615 165.905L55.7862 168.188C56.0768 168.575 56.8008 168.575 57.0913 168.188L58.8161 165.905L59.2312 165.352L60.1627 164.12L61.0943 165.352L61.5093 165.905L63.2341 168.188C63.52 168.575 64.2487 168.575 64.5346 168.188L66.2594 165.905L66.6744 165.352L67.1402 164.734L67.606 164.12L68.0718 164.734L68.5376 165.352L68.9526 165.905L70.6774 168.188C70.9679 168.575 71.6919 168.575 71.9825 168.188L73.7073 165.905L74.1223 165.352L75.0539 164.12L75.9854 165.352L76.4005 165.905L78.1253 168.188C78.4158 168.575 79.1398 168.575 79.4304 168.188L81.1551 165.905L81.5702 165.352L82.036 164.734L82.5017 164.12L82.9675 164.734L83.4333 165.352L83.8484 165.905L85.5731 168.188C85.8591 168.575 86.5877 168.575 86.8736 168.188L88.5984 165.905L89.0135 165.352L89.945 164.12L90.8766 165.352L91.2916 165.905L93.0164 168.188C93.3069 168.575 94.031 168.575 94.3215 168.188L96.0463 165.905L96.4613 165.352L96.9271 164.734L97.3929 164.12L97.8587 164.734L98.3245 165.352L98.7395 165.905L100.464 168.188C100.755 168.575 101.479 168.575 101.769 168.188L103.494 165.905L103.909 165.352L104.841 164.12L105.772 165.352L106.187 165.905L107.912 168.188C108.198 168.575 108.927 168.575 109.213 168.188L110.937 165.905L111.352 165.352L112.284 164.12L112.75 164.734L113.216 165.352L113.631 165.905L115.355 168.188C115.646 168.575 116.37 168.575 116.661 168.188L118.385 165.905L118.8 165.352L119.732 164.12L120.663 165.352L121.079 165.905L122.803 168.188C123.094 168.575 123.818 168.575 124.108 168.188L125.833 165.905L126.248 165.352L126.714 164.734L127.18 164.12L127.646 164.734L128.111 165.352L128.526 165.905L130.251 168.188C130.537 168.575 131.266 168.575 131.552 168.188L133.276 165.905L133.553 165.536L133.692 165.352L134.623 164.12L135.555 165.352L135.97 165.905L137.694 168.188C137.985 168.575 138.709 168.575 139 168.188L140.724 165.905L140.729 165.896L142.209 163.936V14.1803H142.099Z" fill="white" stroke="#38434D" strokeWidth="2.9066" strokeMiterlimit="10" strokeLinejoin="round"/>
<path d="M133.525 160.149H16.4707C14.0034 160.149 12.002 158.148 12.002 155.681V22.3659C12.002 19.8987 14.0034 17.8972 16.4707 17.8972H133.525C135.992 17.8972 137.993 19.8987 137.993 22.3659V155.685C137.993 158.148 135.992 160.149 133.525 160.149Z" fill="#E0AC3B"/>
<path d="M130.525 32.6455H19.4797C17.6304 32.6455 16.127 31.1467 16.127 29.2928V29.0761C16.127 27.2268 17.6258 25.7234 19.4797 25.7234H130.529C132.378 25.7234 133.882 27.2222 133.882 29.0761V29.2928C133.877 31.1467 132.374 32.6455 130.525 32.6455Z" fill="#FAEDAB"/>
<path d="M84.0433 46.9417H19.4797C17.6304 46.9417 16.127 45.4429 16.127 43.589V43.3722C16.127 41.5229 17.6258 40.0195 19.4797 40.0195H84.0479C85.8972 40.0195 87.4006 41.5183 87.4006 43.3722V43.589C87.396 45.4429 85.8972 46.9417 84.0433 46.9417Z" fill="white"/>
<path d="M61.2846 61.2381H19.4797C17.6304 61.2381 16.127 59.7393 16.127 57.8854V57.6686C16.127 55.8193 17.6258 54.3159 19.4797 54.3159H61.2846C63.1339 54.3159 64.6373 55.8147 64.6373 57.6686V57.8854C64.6327 59.7393 63.1339 61.2381 61.2846 61.2381Z" fill="white"/>
<path d="M130.525 93.2893H19.4797C17.6304 93.2893 16.127 91.7905 16.127 89.9366V89.7199C16.127 87.8706 17.6258 86.3672 19.4797 86.3672H130.529C132.378 86.3672 133.882 87.866 133.882 89.7199V89.9366C133.877 91.7905 132.374 93.2893 130.525 93.2893Z" fill="white"/>
<path d="M77.7115 109.43H19.4797C17.6304 109.43 16.127 107.931 16.127 106.078V105.861C16.127 104.011 17.6258 102.508 19.4797 102.508H77.7161C79.5654 102.508 81.0688 104.007 81.0688 105.861V106.078C81.0642 107.931 79.5654 109.43 77.7115 109.43Z" fill="white"/>
<path d="M130.525 109.43H90.675C88.8257 109.43 87.3223 107.931 87.3223 106.078V105.861C87.3223 104.011 88.8211 102.508 90.675 102.508H130.525C132.374 102.508 133.877 104.007 133.877 105.861V106.078C133.877 107.931 132.374 109.43 130.525 109.43Z" fill="white"/>
<path d="M130.525 125.571H19.4797C17.6304 125.571 16.127 124.072 16.127 122.218V122.002C16.127 120.152 17.6258 118.649 19.4797 118.649H130.529C132.378 118.649 133.882 120.148 133.882 122.002V122.218C133.877 124.072 132.374 125.571 130.525 125.571Z" fill="white"/>
<path d="M130.525 141.712H19.4797C17.6304 141.712 16.127 140.213 16.127 138.359V138.142C16.127 136.293 17.6258 134.79 19.4797 134.79H130.529C132.378 134.79 133.882 136.289 133.882 138.142V138.359C133.877 140.213 132.374 141.712 130.525 141.712Z" fill="white"/>
</g>
<line x1="2" y1="3" x2="2" y2="15.2651" stroke="#38434D" strokeWidth="4" strokeLinecap="round" strokeLinejoin="round"/>
<line x1="2" y1="2.6145" x2="14.2651" y2="2.6145" stroke="#38434D" strokeWidth="4" strokeLinecap="round" strokeLinejoin="round"/>
<line x1="2" y1="-2" x2="14.2651" y2="-2" transform="matrix(-4.37121e-08 -1 -1 4.37121e-08 0 177.205)" stroke="#38434D" strokeWidth="4" strokeLinecap="round" strokeLinejoin="round"/>
<line x1="2" y1="-2" x2="14.2651" y2="-2" transform="matrix(1 0 0 -1 0 173.59)" stroke="#38434D" strokeWidth="4" strokeLinecap="round" strokeLinejoin="round"/>
<line x1="2" y1="-2" x2="14.2651" y2="-2" transform="matrix(4.37121e-08 1 1 -4.37121e-08 150 1)" stroke="#38434D" strokeWidth="4" strokeLinecap="round" strokeLinejoin="round"/>
<line x1="2" y1="-2" x2="14.2651" y2="-2" transform="matrix(-1 0 0 1 150 4.6145)" stroke="#38434D" strokeWidth="4" strokeLinecap="round" strokeLinejoin="round"/>
<line x1="148" y1="175.205" x2="148" y2="162.94" stroke="#38434D" strokeWidth="4" strokeLinecap="round" strokeLinejoin="round"/>
<line x1="148" y1="175.59" x2="135.735" y2="175.59" stroke="#38434D" strokeWidth="4" strokeLinecap="round" strokeLinejoin="round"/>
<defs>
<clipPath id="clip0">
<rect width="135.542" height="177.209" fill="white" transform="translate(7.22852 1)"/>
</clipPath>
</defs>
</svg>
