<svg width="150" height="179" viewBox="0 0 150 179" fill="none" xmlns="http://www.w3.org/2000/svg">
<g clip-path="url(#clip0_13068:156998)">
<path d="M142.098 14.18C142.098 11.6344 140.157 9.56836 137.768 9.56836H12.2283C9.83947 9.56836 7.89795 11.6344 7.89795 14.18V163.935L9.38291 165.905L11.1077 168.187C11.3982 168.575 12.1223 168.575 12.4128 168.187L14.1376 165.905L14.5526 165.351L15.4842 164.12L16.4157 165.351L16.8308 165.905L18.5556 168.187C18.8415 168.575 19.5701 168.575 19.8561 168.187L21.5808 165.905L21.9959 165.351L22.4617 164.733L22.9274 164.12L23.3932 164.733L23.859 165.351L24.2741 165.905L25.9988 168.187C26.2894 168.575 27.0134 168.575 27.3039 168.187L29.0287 165.905L29.4438 165.351L30.3753 164.12L31.3069 165.351L31.7219 165.905L33.4467 168.187C33.7372 168.575 34.4613 168.575 34.7518 168.187L36.4766 165.905L36.8916 165.351L37.3574 164.733L37.8232 164.12L38.7548 165.351L39.1698 165.905L40.8946 168.187C41.1805 168.575 41.9092 168.575 42.1951 168.187L43.9199 165.905L44.3349 165.351L45.2665 164.12L46.198 165.351L46.6131 165.905L48.3379 168.187C48.6284 168.575 49.3524 168.575 49.643 168.187L51.3677 165.905L51.7828 165.351L52.2486 164.733L52.7144 164.12L53.1801 164.733L53.6459 165.351L54.061 165.905L55.7857 168.187C56.0763 168.575 56.8003 168.575 57.0908 168.187L58.8156 165.905L59.2307 165.351L60.1622 164.12L61.0938 165.351L61.5088 165.905L63.2336 168.187C63.5195 168.575 64.2482 168.575 64.5341 168.187L66.2589 165.905L66.6739 165.351L67.1397 164.733L67.6055 164.12L68.0713 164.733L68.5371 165.351L68.9521 165.905L70.6769 168.187C70.9674 168.575 71.6915 168.575 71.982 168.187L73.7068 165.905L74.1218 165.351L75.0534 164.12L75.9849 165.351L76.4 165.905L78.1248 168.187C78.4153 168.575 79.1393 168.575 79.4299 168.187L81.1546 165.905L81.5697 165.351L82.0355 164.733L82.5013 164.12L82.967 164.733L83.4328 165.351L83.8479 165.905L85.5726 168.187C85.8586 168.575 86.5872 168.575 86.8731 168.187L88.5979 165.905L89.013 165.351L89.9445 164.12L90.8761 165.351L91.2911 165.905L93.0159 168.187C93.3065 168.575 94.0305 168.575 94.321 168.187L96.0458 165.905L96.4608 165.351L96.9266 164.733L97.3924 164.12L97.8582 164.733L98.324 165.351L98.739 165.905L100.464 168.187C100.754 168.575 101.478 168.575 101.769 168.187L103.494 165.905L103.909 165.351L104.84 164.12L105.772 165.351L106.187 165.905L107.912 168.187C108.198 168.575 108.926 168.575 109.212 168.187L110.937 165.905L111.352 165.351L112.284 164.12L112.749 164.733L113.215 165.351L113.63 165.905L115.355 168.187C115.645 168.575 116.37 168.575 116.66 168.187L118.385 165.905L118.8 165.351L119.731 164.12L120.663 165.351L121.078 165.905L122.803 168.187C123.093 168.575 123.817 168.575 124.108 168.187L125.833 165.905L126.248 165.351L126.714 164.733L127.179 164.12L127.645 164.733L128.111 165.351L128.526 165.905L130.251 168.187C130.537 168.575 131.265 168.575 131.551 168.187L133.276 165.905L133.553 165.536L133.691 165.351L134.623 164.12L135.554 165.351L135.969 165.905L137.694 168.187C137.984 168.575 138.709 168.575 138.999 168.187L140.724 165.905L140.728 165.895L142.209 163.935V14.18H142.098Z" fill="white" stroke="#38434D" stroke-width="2.9066" stroke-miterlimit="10" stroke-linejoin="round"/>
<path d="M133.524 160.149H16.4704C14.0032 160.149 12.0017 158.148 12.0017 155.68V22.3657C12.0017 19.8984 14.0032 17.897 16.4704 17.897H133.524C135.992 17.897 137.993 19.8984 137.993 22.3657V155.685C137.993 158.148 135.992 160.149 133.524 160.149Z" fill="#E0AC3B"/>
<path d="M130.523 32.6453H19.4784C17.6291 32.6453 16.1257 31.1465 16.1257 29.2926V29.0758C16.1257 27.2266 17.6245 25.7231 19.4784 25.7231H130.528C132.377 25.7231 133.881 27.2219 133.881 29.0758V29.2926C133.876 31.1465 132.373 32.6453 130.523 32.6453Z" fill="#FAEDAB"/>
<path d="M84.0421 46.9417H19.4784C17.6291 46.9417 16.1257 45.4429 16.1257 43.589V43.3722C16.1257 41.5229 17.6245 40.0195 19.4784 40.0195H84.0467C85.896 40.0195 87.3994 41.5183 87.3994 43.3722V43.589C87.3948 45.4429 85.896 46.9417 84.0421 46.9417Z" fill="white"/>
<path d="M61.2834 61.2376H19.4784C17.6291 61.2376 16.1257 59.7388 16.1257 57.8849V57.6681C16.1257 55.8188 17.6245 54.3154 19.4784 54.3154H61.2834C63.1327 54.3154 64.6361 55.8142 64.6361 57.6681V57.8849C64.6315 59.7388 63.1327 61.2376 61.2834 61.2376Z" fill="white"/>
<path d="M130.523 93.2889H19.4784C17.6291 93.2889 16.1257 91.7901 16.1257 89.9362V89.7194C16.1257 87.8701 17.6245 86.3667 19.4784 86.3667H130.528C132.377 86.3667 133.881 87.8655 133.881 89.7194V89.9362C133.876 91.7901 132.373 93.2889 130.523 93.2889Z" fill="white"/>
<path d="M77.7102 109.43H19.4784C17.6291 109.43 16.1257 107.931 16.1257 106.077V105.861C16.1257 104.011 17.6245 102.508 19.4784 102.508H77.7149C79.5641 102.508 81.0676 104.007 81.0676 105.861V106.077C81.0629 107.931 79.5641 109.43 77.7102 109.43Z" fill="white"/>
<path d="M130.524 109.43H90.6745C88.8252 109.43 87.3218 107.931 87.3218 106.077V105.861C87.3218 104.011 88.8206 102.508 90.6745 102.508H130.524C132.373 102.508 133.877 104.007 133.877 105.861V106.077C133.877 107.931 132.373 109.43 130.524 109.43Z" fill="white"/>
<path d="M130.523 125.571H19.4784C17.6291 125.571 16.1257 124.072 16.1257 122.218V122.002C16.1257 120.152 17.6245 118.649 19.4784 118.649H130.528C132.377 118.649 133.881 120.148 133.881 122.002V122.218C133.876 124.072 132.373 125.571 130.523 125.571Z" fill="white"/>
<path d="M130.523 141.712H19.4784C17.6291 141.712 16.1257 140.213 16.1257 138.359V138.142C16.1257 136.293 17.6245 134.79 19.4784 134.79H130.528C132.377 134.79 133.881 136.288 133.881 138.142V138.359C133.876 140.213 132.373 141.712 130.523 141.712Z" fill="white"/>
</g>
<line x1="2" y1="3" x2="2" y2="15.2651" stroke="#38434D" stroke-width="4" stroke-linecap="round" stroke-linejoin="round"/>
<line x1="2" y1="2.61426" x2="14.2651" y2="2.61426" stroke="#38434D" stroke-width="4" stroke-linecap="round" stroke-linejoin="round"/>
<line x1="2" y1="-2" x2="14.2651" y2="-2" transform="matrix(-4.37121e-08 -1 -1 4.37121e-08 0 177.205)" stroke="#38434D" stroke-width="4" stroke-linecap="round" stroke-linejoin="round"/>
<line x1="2" y1="-2" x2="14.2651" y2="-2" transform="matrix(1 0 0 -1 0 173.59)" stroke="#38434D" stroke-width="4" stroke-linecap="round" stroke-linejoin="round"/>
<line x1="2" y1="-2" x2="14.2651" y2="-2" transform="matrix(4.37121e-08 1 1 -4.37121e-08 150 1)" stroke="#38434D" stroke-width="4" stroke-linecap="round" stroke-linejoin="round"/>
<line x1="2" y1="-2" x2="14.2651" y2="-2" transform="matrix(-1 0 0 1 150 4.61426)" stroke="#38434D" stroke-width="4" stroke-linecap="round" stroke-linejoin="round"/>
<line x1="148" y1="175.205" x2="148" y2="162.94" stroke="#38434D" stroke-width="4" stroke-linecap="round" stroke-linejoin="round"/>
<line x1="148" y1="175.59" x2="135.735" y2="175.59" stroke="#38434D" stroke-width="4" stroke-linecap="round" stroke-linejoin="round"/>
<defs>
<clipPath id="clip0_13068:156998">
<rect width="135.542" height="177.209" fill="white" transform="translate(7.22852 1)"/>
</clipPath>
</defs>
</svg>
