<svg width="382" height="8" viewBox="0 0 382 8" fill="none" xmlns="https://www.w3.org/2000/svg">
<path fill-rule="evenodd" clip-rule="evenodd" d="M0 0V0.40755V7.99998L7.5 0.882061L15 7.99998L22.5 0.882061L30 7.99998L37.5 0.882061L45 7.99998L52.5 0.882061L60 7.99998L67.5 0.882061L75 7.99998L82.5 0.882061L90 7.99998L97.5 0.882061L105 7.99998L112.5 0.882061L120 7.99998L127.5 0.882061L135 7.99998L142.5 0.882061L150 7.99998L157.5 0.882061L165 7.99998L172.5 0.882061L180 7.99998L187.5 0.882061L195 7.99998L202.5 0.882061L210 7.99998L217.5 0.882061L225 7.99998L232.5 0.882061L240 7.99998L247.5 0.882061L255 7.99998L262.5 0.882061L270 7.99998L277.5 0.882061L285 7.99998L292.5 0.882061L300 7.99998L307.5 0.882061L315 7.99998L322.5 0.882061L330 7.99998L337.5 0.882061L345 7.99998L352.5 0.882061L360 7.99998L367.5 0.882061L375 7.99998L382 1.35663V0.40755V0H0Z" fill="#FAEDAB"/>
</svg>
