<svg width="382" height="8" viewBox="0 0 382 8" fill="none" xmlns="https://www.w3.org/2000/svg">
<path fill-rule="evenodd" clip-rule="evenodd" d="M7.5 7.1179L0 0V7.59243V8H382V7.59243V6.64338L375 0L367.5 7.1179L360 0L352.5 7.1179L345 0L337.5 7.1179L330 0L322.5 7.1179L315 0L307.5 7.1179L300 0L292.5 7.1179L285 0L277.5 7.1179L270 0L262.5 7.1179L255 0L247.5 7.1179L240 0L232.5 7.1179L225 0L217.5 7.1179L210 0L202.5 7.1179L195 0L187.5 7.1179L180 0L172.5 7.1179L165 0L157.5 7.1179L150 0L142.5 7.1179L135 0L127.5 7.1179L120 0L112.5 7.1179L105 0L97.5 7.1179L90 0L82.5 7.1179L75 0L67.5 7.1179L60 0L52.5 7.1179L45 0L37.5 7.1179L30 0L22.5 7.1179L15 0L7.5 7.1179Z" fill="#FAEDAB"/>
</svg>
