<svg width="49" height="48" viewBox="0 0 49 48" fill="none" xmlns="http://www.w3.org/2000/svg">
<path d="M9.31788 23.6833L22.3179 18.5988C22.6458 18.4706 23 18.7124 23 19.0645V25.1329C23 25.4091 22.7761 25.6329 22.5 25.6329H9.5C9.22386 25.6329 9 25.4091 9 25.1329V24.1489C9 23.9431 9.12617 23.7583 9.31788 23.6833Z" fill="#E0AC3B" stroke="#38434D"/>
<path d="M18.1788 37.4169L23.1788 33.2264C23.5042 32.9537 24 33.1851 24 33.6097V39.0001C24 39.2763 23.7761 39.5001 23.5 39.5001H18.5C18.2239 39.5001 18 39.2763 18 39.0001V37.8001C18 37.6522 18.0655 37.5119 18.1788 37.4169Z" fill="#E0AC3B" stroke="#38434D"/>
<path d="M39.6821 23.6833L26.6821 18.5988C26.3542 18.4706 26 18.7124 26 19.0645V25.1329C26 25.4091 26.2239 25.6329 26.5 25.6329H39.5C39.7761 25.6329 40 25.4091 40 25.1329V24.1489C40 23.9431 39.8738 23.7583 39.6821 23.6833Z" fill="#E0AC3B" stroke="#38434D"/>
<path d="M30.8212 37.4169L25.8212 33.2264C25.4958 32.9537 25 33.1851 25 33.6097V39.0001C25 39.2763 25.2239 39.5001 25.5 39.5001H30.5C30.7761 39.5001 31 39.2763 31 39.0001V37.8001C31 37.6522 30.9345 37.5119 30.8212 37.4169Z" fill="#E0AC3B" stroke="#38434D"/>
<path d="M22.1447 10.9723C22.0795 9.62668 23.1528 8.5 24.5 8.5C25.8472 8.5 26.9205 9.62668 26.8553 10.9723L25.5732 37.4109C25.5455 37.9834 25.0732 38.4333 24.5 38.4333C23.9268 38.4333 23.4545 37.9834 23.4268 37.4109L22.1447 10.9723Z" fill="#E0AC3B" stroke="#38434D"/>
</svg>
