<svg width="48" height="48" viewBox="0 0 48 48" fill="none" xmlns="http://www.w3.org/2000/svg">
<path d="M10 34.5591C10 36.4758 11.0942 37.9995 12.5052 37.9995H37.5473C38.9007 37.9995 40.0525 36.4949 40.0525 34.5591V21.957H10V34.5591Z" fill="#F9ECAA" stroke="#38434D" stroke-width="0.83"/>
<path d="M20.9805 30.7551C20.9805 30.3238 21.2396 29.8926 21.6044 29.8926H28.6975C29.0143 29.8926 29.3215 30.3238 29.3215 30.7551V33.6301C29.3215 34.1284 29.0143 34.483 28.6975 34.483H21.6044C21.2396 34.483 20.9805 34.1284 20.9805 33.6301V30.7551Z" fill="#E0AC39" stroke="#38434D" stroke-width="0.83"/>
<path d="M13.3398 30.7551C13.3398 30.3238 13.599 29.8926 13.9638 29.8926H17.7263C18.0335 29.8926 18.3502 30.3238 18.3502 30.7551V33.6301C18.3732 33.8246 18.3216 34.0206 18.2059 34.1788C18.0902 34.337 17.9189 34.4456 17.7263 34.483H13.9829C13.6182 34.483 13.3591 34.1284 13.3591 33.6301L13.3398 30.7551Z" fill="white" stroke="#38434D" stroke-width="0.83"/>
<path d="M40.0525 18.4404C40.0525 16.5237 38.9007 15 37.5473 15H12.5052C11.0942 15 10 16.5717 10 18.4404V21.8712H40.0525V18.4404Z" fill="#E0AC39" stroke="#38434D" stroke-width="0.83"/>
<path d="M31.0163 17.8567H34.8557C34.9346 17.8516 35.0138 17.8622 35.0886 17.8879C35.1634 17.9136 35.2323 17.954 35.2913 18.0067C35.3503 18.0593 35.3982 18.1232 35.4321 18.1945C35.4661 18.2659 35.4855 18.3433 35.4892 18.4222C35.4843 18.5002 35.464 18.5766 35.4295 18.6468C35.395 18.7171 35.3469 18.7798 35.288 18.8315C35.2292 18.8831 35.1607 18.9226 35.0865 18.9478C35.0123 18.9729 34.9338 18.9832 34.8557 18.978H31.0163C30.9381 18.9832 30.8597 18.9729 30.7855 18.9478C30.7113 18.9226 30.6428 18.8831 30.5839 18.8315C30.5251 18.7798 30.477 18.7171 30.4425 18.6468C30.408 18.5766 30.3877 18.5002 30.3828 18.4222C30.3865 18.3433 30.4058 18.2659 30.4398 18.1945C30.4738 18.1232 30.5217 18.0593 30.5807 18.0067C30.6397 17.954 30.7086 17.9136 30.7834 17.8879C30.8582 17.8622 30.9374 17.8516 31.0163 17.8567Z" fill="#38434D"/>
<path d="M44.6406 26.0215H41.953C41.6403 26.0215 41.3867 26.2746 41.3867 26.5869C41.3867 26.8992 41.6403 27.1523 41.953 27.1523H44.6406C44.9533 27.1523 45.2069 26.8992 45.2069 26.5869C45.2069 26.2746 44.9533 26.0215 44.6406 26.0215Z" fill="#E0AC39"/>
<path d="M46.5603 27.6699H41.953C41.6403 27.6699 41.3867 27.9231 41.3867 28.2353C41.3867 28.5476 41.6403 28.8008 41.953 28.8008H46.5603C46.873 28.8008 47.1266 28.5476 47.1266 28.2353C47.1266 27.9231 46.873 27.6699 46.5603 27.6699Z" fill="#E0AC39"/>
</svg>
