<svg width="49" height="48" viewBox="0 0 49 48" fill="none" xmlns="http://www.w3.org/2000/svg">
<path d="M35.8167 20.4909V20.4909L35.824 20.4908C36.0008 20.4882 36.175 20.5337 36.3281 20.6223C36.4811 20.7109 36.6074 20.8393 36.6933 20.994C36.7792 21.1487 36.8216 21.3239 36.8159 21.5007C36.8102 21.6776 36.7567 21.8497 36.6611 21.9985L36.6548 22.0083L36.649 22.0183L25.6633 41.001L25.6588 41.0087L25.6546 41.0166C25.5725 41.1709 25.4478 41.2984 25.2953 41.3838C25.1429 41.4692 24.9691 41.5089 24.7948 41.4983L24.7827 41.4976L24.7707 41.4974C24.6235 41.4956 24.4786 41.461 24.3465 41.3962L24.1262 41.845L24.3465 41.3962C24.2143 41.3313 24.0983 41.2378 24.0067 41.1225C23.9152 41.0072 23.8504 40.8729 23.8172 40.7294C23.7843 40.587 23.7832 40.4392 23.8139 40.2964L26.6892 28.1252L26.8345 27.5102H26.2026H18.8255H18.8179L18.8104 27.5104C18.6687 27.5147 18.5277 27.4877 18.3976 27.4313C18.2675 27.3749 18.1515 27.2905 18.0576 27.1841C17.9638 27.0777 17.8946 26.9519 17.8549 26.8157C17.8153 26.6795 17.8061 26.5361 17.8281 26.3959L17.8282 26.3959L17.8297 26.3845L19.8271 11.3982L19.8273 11.3982L19.8286 11.3857C19.855 11.1414 19.971 10.9156 20.1541 10.752C20.3373 10.5884 20.5746 10.4986 20.82 10.5V10.5H20.8229H29.804C29.958 10.5049 30.109 10.5443 30.2459 10.6153L30.4746 10.1744L30.2459 10.6153C30.3845 10.6872 30.5049 10.7897 30.5982 10.9149C30.6915 11.0402 30.7551 11.1851 30.7843 11.3386C30.8127 11.488 30.8078 11.6418 30.7698 11.789L28.1114 19.834L27.8943 20.4909H28.5861H35.8167Z" fill="#E0AC39" stroke="#38434D"/>
<path d="M19.2649 28.8945H22.7492C22.8329 28.9008 22.9145 28.9236 22.9894 28.9616C23.0643 28.9996 23.131 29.052 23.1855 29.1159C23.2401 29.1797 23.2814 29.2537 23.3073 29.3336C23.3331 29.4135 23.343 29.4977 23.3361 29.5814C23.3466 29.7497 23.2912 29.9155 23.1817 30.0436C23.0721 30.1718 22.917 30.2524 22.7492 30.2683H19.2649C19.097 30.2524 18.9419 30.1718 18.8323 30.0436C18.7228 29.9155 18.6674 29.7497 18.6779 29.5814C18.6711 29.4977 18.6809 29.4135 18.7067 29.3336C18.7325 29.2537 18.774 29.1797 18.8285 29.1159C18.8831 29.052 18.9497 28.9996 19.0246 28.9616C19.0994 28.9236 19.1811 28.9008 19.2649 28.8945Z" fill="#F9ECAA"/>
<path d="M16.1418 31.1553H21.2246C21.4744 31.1553 21.6742 31.455 21.6742 31.8421C21.6742 32.2168 21.4744 32.529 21.2246 32.529H16.1418C15.892 32.529 15.6797 32.2168 15.6797 31.8421C15.6797 31.455 15.892 31.1553 16.1418 31.1553Z" fill="#F9ECAA"/>
</svg>
