<svg width="48" height="48" viewBox="0 0 48 48" fill="none" xmlns="http://www.w3.org/2000/svg">
<path d="M24.265 9.75525L36.7782 17.576C37.2042 17.8422 37.0156 18.5 36.5132 18.5H11.4868C10.9845 18.5 10.7958 17.8422 11.2218 17.576L23.735 9.75525C23.8971 9.65391 24.1029 9.65391 24.265 9.75525Z" fill="#E0AC3B" stroke="#38434D"/>
<rect x="13.5" y="18.5" width="21" height="3" rx="0.5" fill="#E0AC3B" stroke="#38434D"/>
<rect x="8.5" y="36.5" width="31" height="2" rx="0.5" fill="#E0AC3B" stroke="#38434D"/>
<rect x="10.5" y="34.5" width="27" height="2" rx="0.5" fill="#E0AC3B" stroke="#38434D"/>
<rect x="14.5" y="21.5" width="3" height="13" fill="#E0AC3B" stroke="#38434D"/>
<rect x="19.5" y="21.5" width="3" height="13" fill="#E0AC3B" stroke="#38434D"/>
<rect x="25.5" y="21.5" width="3" height="13" fill="#E0AC3B" stroke="#38434D"/>
<rect x="30.5" y="21.5" width="3" height="13" fill="#E0AC3B" stroke="#38434D"/>
<circle cx="24" cy="14" r="2" fill="white"/>
</svg>
