<svg width="49" height="48" viewBox="0 0 49 48" fill="none" xmlns="http://www.w3.org/2000/svg">
<path d="M9.00033 35.7949H9.00039V35.7871V12.2125C9.00039 11.4889 9.2805 10.7975 9.7751 10.2898C10.2693 9.7825 10.9366 9.5 11.6297 9.5H14.259V38.4996H11.6297V38.4995L11.6215 38.4997C11.2776 38.5053 10.9358 38.4399 10.6163 38.3071C10.2968 38.1743 10.0056 37.9765 9.76044 37.7248L9.40228 38.0737L9.76044 37.7248C9.51525 37.4731 9.32115 37.1727 9.19031 36.841C9.05947 36.5093 8.99476 36.1535 9.00033 35.7949Z" fill="#F9ECAA" stroke="#38434D"/>
<path d="M14 38.5V9.5H35V38.5H14Z" fill="#E0AC39" stroke="#38434D"/>
<path d="M18.2399 22.3867C18.2399 22.3166 18.2535 22.2473 18.28 22.1828C18.3064 22.1183 18.3452 22.0599 18.394 22.0109C18.4427 21.962 18.5006 21.9236 18.564 21.898C18.6275 21.8723 18.6953 21.86 18.7635 21.8617H22.4164V18.1117C22.4147 18.0417 22.4268 17.9721 22.4517 17.907C22.4767 17.8418 22.5141 17.7825 22.5618 17.7324C22.6094 17.6823 22.6664 17.6425 22.7292 17.6153C22.7921 17.5882 22.8596 17.5742 22.9278 17.5742H26.0692C26.204 17.5833 26.3308 17.6433 26.4252 17.7425C26.5196 17.8417 26.5749 17.9732 26.5807 18.1117V21.8617H30.2335C30.3685 21.8675 30.4966 21.9244 30.5932 22.0213C30.6898 22.1182 30.7482 22.2483 30.7571 22.3867V25.6116C30.7571 25.6816 30.7435 25.7509 30.717 25.8154C30.6906 25.88 30.6518 25.9384 30.603 25.9873C30.5543 26.0362 30.4964 26.0747 30.433 26.1003C30.3695 26.1259 30.3017 26.1383 30.2335 26.1366H26.5807V29.8866C26.5823 29.9565 26.5702 30.0262 26.5453 30.0913C26.5203 30.1564 26.4829 30.2158 26.4352 30.2659C26.3876 30.316 26.3306 30.3558 26.2678 30.3829C26.2049 30.4101 26.1374 30.4241 26.0692 30.424H22.9278C22.8581 30.43 22.788 30.42 22.7225 30.3949C22.657 30.3698 22.5977 30.3302 22.5488 30.2788C22.5 30.2275 22.4628 30.1657 22.4399 30.0979C22.417 30.0301 22.4089 29.9579 22.4164 29.8866V26.1366H18.7635C18.694 26.1442 18.6237 26.136 18.5576 26.1125C18.4915 26.0889 18.4314 26.0507 18.3813 26.0006C18.3313 25.9504 18.2927 25.8896 18.2683 25.8223C18.2438 25.7551 18.2341 25.6831 18.2399 25.6116V22.3867Z" fill="white"/>
<path d="M34.7422 38.4996V9.5H37.3674C38.058 9.51178 38.7198 9.79855 39.2122 10.3041C39.7051 10.8101 39.9892 11.4956 40.0008 12.2163V35.7871C40.0008 36.5107 39.7207 37.2021 39.2261 37.7098C38.7319 38.2171 38.0645 38.4996 37.3715 38.4996H34.7422Z" fill="#F9ECAA" stroke="#38434D"/>
</svg>
