<svg width="49" height="48" viewBox="0 0 49 48" fill="none" xmlns="http://www.w3.org/2000/svg">
<path d="M9.00033 35.7949H9.00039V35.7871V12.2125C9.00039 11.4889 9.2805 10.7975 9.7751 10.2898C10.2693 9.7825 10.9366 9.5 11.6297 9.5H14.259V38.4996H11.6297V38.4995L11.6215 38.4997C11.2776 38.5053 10.9358 38.4399 10.6163 38.3071C10.2968 38.1743 10.0056 37.9765 9.76044 37.7248L9.40228 38.0737L9.76044 37.7248C9.51525 37.4731 9.32115 37.1727 9.19031 36.841C9.05947 36.5093 8.99476 36.1535 9.00033 35.7949Z" fill="#F9ECAA" stroke="#38434D"/>
<path d="M14 38.5V9.5H35V38.5H14Z" fill="#E0AC39" stroke="#38434D"/>
<path d="M18.2399 22.3871C18.2399 22.3171 18.2535 22.2478 18.28 22.1833C18.3064 22.1188 18.3452 22.0603 18.394 22.0114C18.4427 21.9625 18.5006 21.9241 18.564 21.8985C18.6275 21.8728 18.6953 21.8605 18.7635 21.8622H22.4164V18.1122C22.4147 18.0422 22.4268 17.9726 22.4517 17.9074C22.4767 17.8423 22.5141 17.7829 22.5618 17.7329C22.6094 17.6828 22.6664 17.643 22.7292 17.6158C22.7921 17.5887 22.8596 17.5747 22.9278 17.5747H26.0692C26.204 17.5838 26.3308 17.6437 26.4252 17.7429C26.5196 17.8421 26.5749 17.9737 26.5807 18.1122V21.8622H30.2335C30.3685 21.868 30.4966 21.9248 30.5932 22.0217C30.6898 22.1186 30.7482 22.2488 30.7571 22.3871V25.6121C30.7571 25.6821 30.7435 25.7514 30.717 25.8159C30.6906 25.8805 30.6518 25.9389 30.603 25.9878C30.5543 26.0367 30.4964 26.0751 30.433 26.1008C30.3695 26.1264 30.3017 26.1388 30.2335 26.1371H26.5807V29.887C26.5823 29.957 26.5702 30.0266 26.5453 30.0918C26.5203 30.1569 26.4829 30.2163 26.4352 30.2664C26.3876 30.3165 26.3306 30.3563 26.2678 30.3834C26.2049 30.4106 26.1374 30.4246 26.0692 30.4245H22.9278C22.8581 30.4305 22.788 30.4205 22.7225 30.3954C22.657 30.3703 22.5977 30.3307 22.5488 30.2793C22.5 30.228 22.4628 30.1662 22.4399 30.0984C22.417 30.0306 22.4089 29.9584 22.4164 29.887V26.1371H18.7635C18.694 26.1447 18.6237 26.1364 18.5576 26.1129C18.4915 26.0894 18.4314 26.0512 18.3813 26.0011C18.3313 25.9509 18.2927 25.8901 18.2683 25.8228C18.2438 25.7556 18.2341 25.6836 18.2399 25.6121V22.3871Z" fill="white"/>
<path d="M34.7422 38.4996V9.5H37.3674C38.058 9.51178 38.7198 9.79855 39.2122 10.3041C39.7051 10.8101 39.9892 11.4956 40.0008 12.2163V35.7871C40.0008 36.5107 39.7207 37.2021 39.2261 37.7098C38.7319 38.2171 38.0645 38.4996 37.3715 38.4996H34.7422Z" fill="#F9ECAA" stroke="#38434D"/>
</svg>
