<svg width="49" height="48" viewBox="0 0 49 48" fill="none" xmlns="http://www.w3.org/2000/svg">
<path d="M21.053 14.3094C20.4021 13.6246 20.4296 12.5418 21.1144 11.8909" stroke="#38434D" stroke-linecap="round"/>
<path d="M20.2025 15.6249C18.8284 14.1791 18.8864 11.8931 20.3322 10.5189" stroke="#38434D" stroke-linecap="round"/>
<path d="M19.2821 17.3499C16.9757 14.9233 17.0731 11.0865 19.4997 8.78013" stroke="#38434D" stroke-linecap="round"/>
<path d="M28.4431 14.3094C29.094 13.6246 29.0665 12.5418 28.3817 11.8909" stroke="#38434D" stroke-linecap="round"/>
<path d="M29.2936 15.6249C30.6677 14.1791 30.6097 11.8931 29.1639 10.5189" stroke="#38434D" stroke-linecap="round"/>
<path d="M30.214 17.3499C32.5204 14.9233 32.423 11.0865 29.9964 8.78013" stroke="#38434D" stroke-linecap="round"/>
<path d="M24.2104 13.6719L15.6406 35.0963L24.2104 30.8114L33.3158 35.0963L25.2816 14.7431L24.2104 13.6719Z" fill="#E0AC39"/>
<circle cx="24.4998" cy="12.8123" r="1.32012" fill="#E0AC39" stroke="#38434D"/>
<path d="M20.8594 21.459L24.4996 23.7341L27.6848 21.459" stroke="#38434D"/>
<path d="M19.0391 27.8301L24.2894 31.0153L29.9598 27.8301" stroke="#38434D"/>
<path d="M19.0391 27.375L24.4994 23.7348L29.9598 27.375" stroke="#38434D"/>
<path d="M15.8555 35.1094L24.501 31.0141L33.1466 35.1094" stroke="#38434D"/>
<path d="M14.5 39.2187L24.0652 14.2188M34.5 39.2187L24.9348 14.2188" stroke="#38434D" stroke-linecap="round"/>
</svg>
