<svg width="49" height="48" viewBox="0 0 49 48" fill="none" xmlns="http://www.w3.org/2000/svg">
<path d="M21.053 14.3104C20.4021 13.6256 20.4296 12.5428 21.1144 11.8919" stroke="#38434D" strokeLinecap="round"/>
<path d="M20.2025 15.6268C18.8284 14.181 18.8864 11.895 20.3322 10.5209" stroke="#38434D" strokeLinecap="round"/>
<path d="M19.2821 17.3499C16.9757 14.9233 17.0731 11.0865 19.4997 8.78013" stroke="#38434D" strokeLinecap="round"/>
<path d="M28.4431 14.3109C29.094 13.6261 29.0665 12.5433 28.3817 11.8924" stroke="#38434D" strokeLinecap="round"/>
<path d="M29.2936 15.6263C30.6677 14.1806 30.6097 11.8945 29.1639 10.5204" stroke="#38434D" strokeLinecap="round"/>
<path d="M30.214 17.3499C32.5204 14.9233 32.423 11.0865 29.9964 8.78013" stroke="#38434D" strokeLinecap="round"/>
<path d="M24.2104 13.6719L15.6406 35.0963L24.2104 30.8114L33.3158 35.0963L25.2816 14.7431L24.2104 13.6719Z" fill="#E0AC39"/>
<circle cx="24.4998" cy="12.8143" r="1.32012" fill="#E0AC39" stroke="#38434D"/>
<path d="M20.8594 21.46L24.4996 23.7351L27.6848 21.46" stroke="#38434D"/>
<path d="M19.0391 27.8301L24.2894 31.0153L29.9598 27.8301" stroke="#38434D"/>
<path d="M19.0391 27.375L24.4994 23.7348L29.9598 27.375" stroke="#38434D"/>
<path d="M15.8555 35.1108L24.501 31.0156L33.1466 35.1108" stroke="#38434D"/>
<path d="M14.5 39.2202L24.0652 14.2202M34.5 39.2202L24.9348 14.2202" stroke="#38434D" strokeLinecap="round"/>
</svg>
