<svg width="48" height="48" viewBox="0 0 48 48" fill="none" xmlns="http://www.w3.org/2000/svg">
<path d="M32.635 10H14.5983C13.7156 10 13 10.7156 13 11.5983V36.4017C13 37.2844 13.7156 38 14.5983 38H32.635C33.5177 38 34.2333 37.2844 34.2333 36.4017V11.5983C34.2333 10.7156 33.5177 10 32.635 10Z" fill="white" stroke="#38434D" stroke-width="0.83" stroke-linecap="round" stroke-linejoin="round"/>
<path d="M31.8406 12.4727H15.3906V35.5377H31.8406V12.4727Z" fill="#E0AC36"/>
<path d="M23.9766 22.623H29.9266" stroke="#F9ECAA" stroke-width="0.95" stroke-linecap="round" stroke-linejoin="round"/>
<path d="M17.3516 25.9824H29.8699" stroke="#38434D" stroke-width="0.83" stroke-linecap="round" stroke-linejoin="round"/>
<path d="M17.3516 29.4824H29.8699" stroke="#38434D" stroke-width="0.83" stroke-linecap="round" stroke-linejoin="round"/>
<path d="M17.3516 32.8438H29.8699" stroke="#38434D" stroke-width="0.83" stroke-linecap="round" stroke-linejoin="round"/>
<path d="M30.6051 16.3345H29.8118C29.8118 16.3345 29.8118 16.2411 29.8118 16.1945C29.8248 15.9268 29.777 15.6597 29.6719 15.4132C29.5668 15.1666 29.4072 14.9471 29.2051 14.7711C28.7476 14.3838 28.1586 14.1875 27.5601 14.2228H25.2268V16.3345H24.6318C24.5456 16.3499 24.4675 16.3952 24.4113 16.4624C24.355 16.5295 24.3242 16.6144 24.3242 16.702C24.3242 16.7896 24.355 16.8744 24.4113 16.9416C24.4675 17.0088 24.5456 17.054 24.6318 17.0695H25.2268V17.4428H24.8185C24.768 17.4335 24.7161 17.4354 24.6664 17.4483C24.6167 17.4613 24.5704 17.4851 24.531 17.5179C24.4915 17.5508 24.4597 17.5919 24.4379 17.6384C24.4161 17.6849 24.4048 17.7356 24.4048 17.787C24.4048 17.8383 24.4161 17.8891 24.4379 17.9355C24.4597 17.982 24.4915 18.0232 24.531 18.056C24.5704 18.0889 24.6167 18.1126 24.6664 18.1256C24.7161 18.1386 24.768 18.1405 24.8185 18.1311H25.2268V20.6511H26.0668V18.1428H27.5835C28.1836 18.1812 28.7771 17.9986 29.2518 17.6295C29.4329 17.4775 29.5767 17.2859 29.6718 17.0695H30.5818C30.6355 17.0791 30.6907 17.0768 30.7435 17.0628C30.7962 17.0487 30.8453 17.0233 30.8871 16.9883C30.929 16.9532 30.9627 16.9094 30.9858 16.86C31.0089 16.8105 31.0209 16.7566 31.0209 16.702C31.0209 16.6474 31.0089 16.5935 30.9858 16.544C30.9627 16.4945 30.929 16.4507 30.8871 16.4157C30.8453 16.3806 30.7962 16.3552 30.7435 16.3412C30.6907 16.3272 30.6355 16.3249 30.5818 16.3345H30.6051ZM26.0901 14.9228H27.6651C28.0296 14.913 28.3842 15.0423 28.6568 15.2845C28.7794 15.4009 28.8753 15.5426 28.9377 15.6997C29.0002 15.8568 29.0277 16.0256 29.0185 16.1945C29.0185 16.1945 29.0185 16.2878 29.0185 16.3345H26.1135L26.0901 14.9228ZM28.6568 17.1278C28.3604 17.3553 27.9913 17.4673 27.6185 17.4428H26.0901V17.0695H28.6451C28.6451 17.0695 28.6451 17.1161 28.6451 17.1278H28.6568Z" fill="#38434D"/>
<path d="M23.979 17.4437C23.9361 17.4421 23.8933 17.4491 23.853 17.4641C23.8128 17.479 23.7759 17.5018 23.7445 17.5311C23.7131 17.5603 23.6877 17.5955 23.6699 17.6346C23.6521 17.6736 23.6421 17.7158 23.6406 17.7587V17.817C23.6406 17.9068 23.6763 17.9928 23.7397 18.0563C23.8032 18.1197 23.8892 18.1554 23.979 18.1554C24.0687 18.1554 24.1547 18.1197 24.2182 18.0563C24.2816 17.9928 24.3173 17.9068 24.3173 17.817C24.3242 17.7694 24.3205 17.7208 24.3065 17.6748C24.2924 17.6287 24.2684 17.5863 24.2361 17.5507C24.2038 17.515 24.1639 17.4869 24.1195 17.4684C24.075 17.4499 24.0271 17.4415 23.979 17.4437Z" fill="#38434D"/>
</svg>
