<svg width="49" height="48" viewBox="0 0 49 48" fill="none" xmlns="http://www.w3.org/2000/svg">
<rect x="23" y="28.5" width="3" height="8" rx="0.5" fill="#E0AC3B" stroke="#38434D"/>
<rect x="20" y="33.5" width="9" height="3" rx="0.5" fill="#E0AC3B" stroke="#38434D"/>
<rect x="11" y="36.5" width="27" height="3" rx="0.5" fill="#E0AC3B" stroke="#38434D"/>
<rect x="9" y="8.5" width="31" height="23" rx="0.5" fill="#E0AC3B" stroke="#38434D"/>
<rect x="12" y="11.5" width="25" height="17" rx="0.5" fill="white" stroke="#38434D"/>
<path d="M32.5067 17.6048H30.6112C30.6112 17.6048 30.6112 17.4017 30.6112 17.3001C30.6423 16.7176 30.528 16.1362 30.2769 15.5996C30.0259 15.063 29.6446 14.5853 29.1618 14.2023C28.0686 13.3593 26.6612 12.932 25.2314 13.0088H19.6565V17.6048H18.2349C18.0288 17.6384 17.8423 17.7369 17.708 17.8832C17.5736 18.0294 17.5 18.214 17.5 18.4047C17.5 18.5954 17.5736 18.78 17.708 18.9262C17.8423 19.0725 18.0288 19.171 18.2349 19.2046H19.6565V20.0171H18.6809C18.5602 19.9968 18.4362 20.0009 18.3175 20.0292C18.1988 20.0574 18.0883 20.1091 17.994 20.1806C17.8997 20.2521 17.8238 20.3416 17.7717 20.4428C17.7196 20.544 17.6926 20.6544 17.6926 20.7662C17.6926 20.878 17.7196 20.9884 17.7717 21.0896C17.8238 21.1908 17.8997 21.2803 17.994 21.3518C18.0883 21.4233 18.1988 21.475 18.3175 21.5032C18.4362 21.5315 18.5602 21.5356 18.6809 21.5153H19.6565V27H21.6635V21.5406H25.2872C26.7211 21.6243 28.1389 21.2268 29.2732 20.4234C29.706 20.0927 30.0494 19.6756 30.2767 19.2046H32.451C32.5794 19.2255 32.7112 19.2205 32.8372 19.19C32.9633 19.1594 33.0805 19.1041 33.1805 19.0278C33.2805 18.9515 33.361 18.8562 33.4162 18.7486C33.4714 18.6409 33.5 18.5235 33.5 18.4047C33.5 18.2859 33.4714 18.1685 33.4162 18.0608C33.361 17.9532 33.2805 17.8579 33.1805 17.7816C33.0805 17.7053 32.9633 17.65 32.8372 17.6194C32.7112 17.5889 32.5794 17.5839 32.451 17.6048H32.5067ZM21.7192 14.5324H25.4823C26.3532 14.511 27.2004 14.7925 27.8517 15.3195C28.1446 15.5729 28.3736 15.8813 28.5228 16.2232C28.672 16.5652 28.7379 16.9327 28.7158 17.3001C28.7158 17.3001 28.7158 17.5033 28.7158 17.6048H21.7749L21.7192 14.5324ZM27.8517 19.3315C27.1434 19.8267 26.2617 20.0703 25.3708 20.0171H21.7192V19.2046H27.8238C27.8238 19.2046 27.8238 19.3061 27.8238 19.3315H27.8517Z" fill="#38434D"/>
<path d="M16.9975 21.0005C16.9344 20.9983 16.8715 21.008 16.8123 21.0291C16.7532 21.0501 16.699 21.0821 16.6528 21.1232C16.6066 21.1643 16.5693 21.2137 16.5431 21.2685C16.5169 21.3234 16.5022 21.3826 16.5 21.4429V21.5248C16.5 21.6508 16.5525 21.7717 16.6457 21.8608C16.739 21.9499 16.8656 22 16.9975 22C17.1294 22 17.256 21.9499 17.3493 21.8608C17.4426 21.7717 17.495 21.6508 17.495 21.5248C17.5052 21.4579 17.4997 21.3897 17.4791 21.325C17.4585 21.2603 17.4231 21.2008 17.3756 21.1507C17.3281 21.1006 17.2695 21.0612 17.2041 21.0352C17.1388 21.0092 17.0682 20.9974 16.9975 21.0005Z" fill="#38434D"/>
</svg>
