<svg width="48" height="48" viewBox="0 0 48 48" fill="none" xmlns="http://www.w3.org/2000/svg">
<path d="M36.9855 11.3439L31.2903 10.0368C30.987 9.96394 30.6677 9.99999 30.3883 10.1386C30.1088 10.2773 29.887 10.5098 29.7615 10.7954L27.1357 16.934C27.0304 17.1969 27.0109 17.4863 27.0801 17.7609C27.1492 18.0355 27.3035 18.2812 27.5208 18.4628L30.8585 21.1937C28.8372 25.4385 25.417 28.8588 21.1721 30.8801L18.4295 27.5424C18.2454 27.3286 17.9991 27.1776 17.725 27.1107C17.4509 27.0437 17.1627 27.0641 16.9007 27.1689L10.7738 29.7947C10.4931 29.9269 10.2647 30.1493 10.1251 30.4264C9.98548 30.7035 9.94268 31.0193 10.0035 31.3236L11.3223 37.0187C11.3944 37.3074 11.5638 37.5624 11.8018 37.7409C12.0398 37.9194 12.332 38.0106 12.6294 37.999C15.9651 38.0021 19.2687 37.3473 22.3512 36.0722C25.4336 34.7971 28.2343 32.9267 30.593 30.5679C32.9517 28.2092 34.8222 25.4085 36.0973 22.3261C37.3724 19.2436 38.0272 15.94 38.0241 12.6043C38.0157 12.3086 37.9091 12.0242 37.721 11.7959C37.5329 11.5677 37.2741 11.4086 36.9855 11.3439Z" fill="#E0AC39" stroke="#38434D" stroke-width="0.83"/>
</svg>
