<svg width="48" height="48" viewBox="0 0 48 48" fill="none" xmlns="http://www.w3.org/2000/svg">
<path d="M36.9855 11.3439L31.2903 10.0368C30.987 9.96394 30.6677 9.99999 30.3883 10.1386C30.1088 10.2773 29.887 10.5098 29.7615 10.7954L27.1357 16.934C27.0304 17.1969 27.0109 17.4863 27.0801 17.7609C27.1492 18.0355 27.3035 18.2812 27.5208 18.4628L30.8585 21.1937C28.8372 25.4385 25.417 28.8588 21.1721 30.8801L18.4295 27.5424C18.2454 27.3286 17.9991 27.1776 17.725 27.1107C17.4509 27.0437 17.1627 27.0641 16.9007 27.1689L10.7738 29.7947C10.4931 29.9269 10.2647 30.1493 10.1251 30.4264C9.98548 30.7035 9.94268 31.0193 10.0035 31.3236L11.3223 37.0187C11.3944 37.3074 11.5638 37.5624 11.8018 37.7409C12.0398 37.9194 12.332 38.0106 12.6294 37.999C15.9651 38.0021 19.2687 37.3473 22.3512 36.0722C25.4336 34.7971 28.2343 32.9267 30.593 30.5679C32.9517 28.2092 34.8222 25.4085 36.0973 22.3261C37.3724 19.2436 38.0272 15.94 38.0241 12.6043C38.0157 12.3086 37.9091 12.0242 37.721 11.7959C37.5329 11.5677 37.2741 11.4086 36.9855 11.3439Z" fill="#E0AC39" stroke="#38434D" stroke-width="0.83"/>
<path d="M20.6242 21.7031H23.4718C23.5409 21.709 23.6081 21.7285 23.6696 21.7604C23.7311 21.7924 23.7856 21.8362 23.8301 21.8894C23.8746 21.9426 23.9081 22.004 23.9287 22.0702C23.9494 22.1364 23.9567 22.206 23.9503 22.275C23.9567 22.344 23.9494 22.4136 23.9287 22.4798C23.9081 22.5459 23.8746 22.6074 23.8301 22.6605C23.7856 22.7137 23.7311 22.7575 23.6696 22.7895C23.6081 22.8215 23.5409 22.841 23.4718 22.8468H20.5892C20.4509 22.8321 20.3237 22.7642 20.2345 22.6575C20.1452 22.5509 20.1009 22.4137 20.1107 22.275C20.106 22.2035 20.1156 22.1318 20.139 22.0641C20.1624 21.9964 20.1991 21.9341 20.247 21.8808C20.2948 21.8275 20.3528 21.7844 20.4176 21.7538C20.4824 21.7233 20.5527 21.7061 20.6242 21.7031Z" fill="#E0AC39"/>
<path d="M16.4692 20H21.5691C21.6367 20.0059 21.7024 20.025 21.7625 20.0564C21.8226 20.0878 21.8758 20.1308 21.9192 20.1828C21.9626 20.2349 21.9953 20.2951 22.0153 20.3598C22.0353 20.4246 22.0423 20.4927 22.0359 20.5602C22.049 20.6977 22.0073 20.8349 21.92 20.942C21.8326 21.049 21.7065 21.1173 21.5691 21.132H16.4692C16.3318 21.1173 16.2057 21.049 16.1183 20.942C16.0309 20.8349 15.9893 20.6977 16.0024 20.5602C15.9959 20.4927 16.0029 20.4246 16.023 20.3598C16.043 20.2951 16.0757 20.2349 16.1191 20.1828C16.1625 20.1308 16.2158 20.0878 16.2758 20.0564C16.3359 20.025 16.4016 20.0059 16.4692 20Z" fill="#E0AC39"/>
</svg>
