<svg width="49" height="48" viewBox="0 0 49 48" fill="none" xmlns="http://www.w3.org/2000/svg">
<path d="M10.5029 38.8362L20.9029 8.83623L20.4305 8.67246L20.9029 8.83623C20.9727 8.63496 21.1623 8.5 21.3754 8.5H22.437C22.7131 8.5 22.937 8.72386 22.937 9V39C22.937 39.2761 22.7131 39.5 22.437 39.5H10.9754C10.6316 39.5 10.3903 39.1611 10.5029 38.8362Z" fill="#E0AC39" stroke="#38434D"/>
<path d="M38.4574 38.8251L27.2574 8.82512C27.1844 8.62961 26.9976 8.5 26.7889 8.5H25.4964C25.2202 8.5 24.9964 8.72386 24.9964 9V39C24.9964 39.2761 25.2202 39.5 25.4964 39.5H37.9889C38.3377 39.5 38.5794 39.1519 38.4574 38.8251Z" fill="#E0AC39" stroke="#38434D"/>
<rect x="9" y="20.2334" width="31" height="5.4" rx="1.5" fill="#FAEDAB" stroke="#38434D"/>
<path d="M12.0536 20H14.125L12.5714 26H10.5L12.0536 20Z" fill="#38434D"/>
<path d="M15.6786 20H17.75L16.1964 26H14.125L15.6786 20Z" fill="#38434D"/>
<path d="M19.3036 20H21.375L19.8214 26H17.75L19.3036 20Z" fill="#38434D"/>
<path d="M22.9286 20H25L23.4464 26H21.375L22.9286 20Z" fill="#38434D"/>
<path d="M26.5536 20H28.625L27.0714 26H25L26.5536 20Z" fill="#38434D"/>
<path d="M30.1786 20H32.25L30.6964 26H28.625L30.1786 20Z" fill="#38434D"/>
<path d="M33.8036 20H35.875L34.3214 26H32.25L33.8036 20Z" fill="#38434D"/>
<path d="M37.4286 20H39.5L37.9464 26H35.875L37.4286 20Z" fill="#38434D"/>
</svg>
