<svg width="49" height="48" viewBox="0 0 49 48" fill="none" xmlns="http://www.w3.org/2000/svg">
<path d="M24.9058 34.3138C23.5574 34.3149 22.2285 33.9914 21.0315 33.3705C19.8346 32.7496 18.8047 31.8496 18.0289 30.7467C17.2532 29.6437 16.7545 28.3702 16.5749 27.0338C16.3952 25.6974 16.54 24.3374 16.997 23.0688C18.3763 19.7089 20.0838 16.4932 22.0945 13.4686C22.7361 12.4654 23.401 11.4739 24.0892 10.5057C24.1661 10.3536 24.2837 10.2258 24.4289 10.1365C24.5741 10.0473 24.7412 10 24.9116 10C25.0821 10 25.2492 10.0473 25.3943 10.1365C25.5395 10.2258 25.6571 10.3536 25.734 10.5057C28.6228 14.4455 31.0275 18.7183 32.8963 23.2321C33.3258 24.498 33.4464 25.8483 33.2482 27.1703C33.0501 28.4923 32.5387 29.7478 31.7569 30.8322C30.975 31.9165 29.9453 32.7982 28.7536 33.4038C27.5618 34.0095 26.2426 34.3214 24.9058 34.3138Z" fill="#E0AC39" stroke="#38434D" stroke-width="0.83"/>
<path d="M18.6875 27.1855C18.7894 28.2598 19.1938 29.2832 19.854 30.1368C20.5663 31.0258 21.5233 31.6868 22.6069 32.0381" stroke="#F9ECAA" stroke-width="0.83" stroke-linecap="round" stroke-linejoin="round"/>
<path d="M23.2499 37.0781H25.5828C25.6954 37.0899 25.7987 37.1454 25.8707 37.2327C25.9427 37.32 25.9776 37.432 25.9678 37.5447C25.9726 37.5999 25.9664 37.6555 25.9496 37.7083C25.9328 37.7611 25.9058 37.81 25.87 37.8523C25.8342 37.8946 25.7904 37.9294 25.7411 37.9547C25.6918 37.98 25.6381 37.9952 25.5828 37.9997H23.2499C23.1946 37.9952 23.1408 37.98 23.0916 37.9547C23.0423 37.9294 22.9985 37.8946 22.9627 37.8523C22.9269 37.81 22.8998 37.7611 22.8831 37.7083C22.8663 37.6555 22.8601 37.5999 22.8649 37.5447C22.8551 37.432 22.89 37.32 22.962 37.2327C23.034 37.1454 23.1374 37.0899 23.2499 37.0781Z" fill="#E0AC39"/>
<path d="M20.147 35.3398H23.5298C23.6931 35.3398 23.8331 35.5498 23.8331 35.8064C23.8331 36.0631 23.6931 36.2614 23.5298 36.2614H20.147C19.972 36.2614 19.832 36.0631 19.832 35.8064C19.832 35.5498 19.972 35.3398 20.147 35.3398Z" fill="#E0AC39"/>
</svg>
